<?xml version="1.0" encoding="UTF-8" standalone="no"?>
<!DOCTYPE svg PUBLIC "-//W3C//DTD SVG 1.1//EN"
 "http://www.w3.org/Graphics/SVG/1.1/DTD/svg11.dtd">
<!-- Generated by graphviz version 2.42.4 (0)
 -->
<!-- Pages: 1 -->
<svg width="318pt" height="1698pt"
 viewBox="0.00 0.00 318.00 1698.00" xmlns="http://www.w3.org/2000/svg" xmlns:xlink="http://www.w3.org/1999/xlink">
<g id="graph0" class="graph" transform="scale(1 1) rotate(0) translate(4 1694)">
<polygon fill="#1a1a2e" stroke="transparent" points="-4,4 -4,-1694 314,-1694 314,4 -4,4"/>
<!-- START -->
<g id="node1" class="node">
<title>START</title>
<path fill="#27ae60" stroke="white" d="M128,-1690C128,-1690 98,-1690 98,-1690 92,-1690 86,-1684 86,-1678 86,-1678 86,-1666 86,-1666 86,-1660 92,-1654 98,-1654 98,-1654 128,-1654 128,-1654 134,-1654 140,-1660 140,-1666 140,-1666 140,-1678 140,-1678 140,-1684 134,-1690 128,-1690"/>
<text text-anchor="middle" x="113" y="-1669.2" font-family="sans" font-size="11.00" fill="white">Start</text>
</g>
<!-- PHASE1 -->
<g id="node2" class="node">
<title>PHASE1</title>
<path fill="#d35400" stroke="white" d="M175.5,-1623C175.5,-1623 50.5,-1623 50.5,-1623 44.5,-1623 38.5,-1617 38.5,-1611 38.5,-1611 38.5,-1599 38.5,-1599 38.5,-1593 44.5,-1587 50.5,-1587 50.5,-1587 175.5,-1587 175.5,-1587 181.5,-1587 187.5,-1593 187.5,-1599 187.5,-1599 187.5,-1611 187.5,-1611 187.5,-1617 181.5,-1623 175.5,-1623"/>
<text text-anchor="middle" x="113" y="-1602.2" font-family="sans" font-size="11.00" fill="white">Phase 1: Deep HW Scan</text>
</g>
<!-- START&#45;&gt;PHASE1 -->
<g id="edge1" class="edge">
<title>START&#45;&gt;PHASE1</title>
<path fill="none" stroke="#888899" d="M113,-1653.9C113,-1647.7 113,-1640.5 113,-1633.6"/>
<polygon fill="#888899" stroke="#888899" points="116.5,-1633.2 113,-1623.2 109.5,-1633.2 116.5,-1633.2"/>
</g>
<!-- SCAN -->
<g id="node3" class="node">
<title>SCAN</title>
<path fill="#2980b9" stroke="white" d="M176,-1556C176,-1556 50,-1556 50,-1556 44,-1556 38,-1550 38,-1544 38,-1544 38,-1532 38,-1532 38,-1526 44,-1520 50,-1520 50,-1520 176,-1520 176,-1520 182,-1520 188,-1526 188,-1532 188,-1532 188,-1544 188,-1544 188,-1550 182,-1556 176,-1556"/>
<text text-anchor="middle" x="113" y="-1535.2" font-family="sans" font-size="11.00" fill="white">scanner_.scan_all + hw_</text>
</g>
<!-- PHASE1&#45;&gt;SCAN -->
<g id="edge2" class="edge">
<title>PHASE1&#45;&gt;SCAN</title>
<path fill="none" stroke="#888899" d="M113,-1586.9C113,-1580.7 113,-1573.5 113,-1566.6"/>
<polygon fill="#888899" stroke="#888899" points="116.5,-1566.2 113,-1556.2 109.5,-1566.2 116.5,-1566.2"/>
</g>
<!-- SOC -->
<g id="node4" class="node">
<title>SOC</title>
<path fill="#16a085" stroke="white" d="M174.5,-1489C174.5,-1489 51.5,-1489 51.5,-1489 45.5,-1489 39.5,-1483 39.5,-1477 39.5,-1477 39.5,-1465 39.5,-1465 39.5,-1459 45.5,-1453 51.5,-1453 51.5,-1453 174.5,-1453 174.5,-1453 180.5,-1453 186.5,-1459 186.5,-1465 186.5,-1465 186.5,-1477 186.5,-1477 186.5,-1483 180.5,-1489 174.5,-1489"/>
<text text-anchor="middle" x="113" y="-1468.2" font-family="sans" font-size="11.00" fill="white">detect_soc + TrustZone</text>
</g>
<!-- SCAN&#45;&gt;SOC -->
<g id="edge3" class="edge">
<title>SCAN&#45;&gt;SOC</title>
<path fill="none" stroke="#888899" d="M113,-1519.9C113,-1513.7 113,-1506.5 113,-1499.6"/>
<polygon fill="#888899" stroke="#888899" points="116.5,-1499.2 113,-1489.2 109.5,-1499.2 116.5,-1499.2"/>
</g>
<!-- PHASE2 -->
<g id="node5" class="node">
<title>PHASE2</title>
<path fill="#d35400" stroke="white" d="M172.5,-1422C172.5,-1422 53.5,-1422 53.5,-1422 47.5,-1422 41.5,-1416 41.5,-1410 41.5,-1410 41.5,-1398 41.5,-1398 41.5,-1392 47.5,-1386 53.5,-1386 53.5,-1386 172.5,-1386 172.5,-1386 178.5,-1386 184.5,-1392 184.5,-1398 184.5,-1398 184.5,-1410 184.5,-1410 184.5,-1416 178.5,-1422 172.5,-1422"/>
<text text-anchor="middle" x="113" y="-1401.2" font-family="sans" font-size="11.00" fill="white">Phase 2: Kernel Exploit</text>
</g>
<!-- SOC&#45;&gt;PHASE2 -->
<g id="edge4" class="edge">
<title>SOC&#45;&gt;PHASE2</title>
<path fill="none" stroke="#888899" d="M113,-1452.9C113,-1446.7 113,-1439.5 113,-1432.6"/>
<polygon fill="#888899" stroke="#888899" points="116.5,-1432.2 113,-1422.2 109.5,-1432.2 116.5,-1432.2"/>
</g>
<!-- EXPLOIT -->
<g id="node6" class="node">
<title>EXPLOIT</title>
<path fill="#c0392b" stroke="white" d="M164.5,-1355C164.5,-1355 61.5,-1355 61.5,-1355 55.5,-1355 49.5,-1349 49.5,-1343 49.5,-1343 49.5,-1331 49.5,-1331 49.5,-1325 55.5,-1319 61.5,-1319 61.5,-1319 164.5,-1319 164.5,-1319 170.5,-1319 176.5,-1325 176.5,-1331 176.5,-1331 176.5,-1343 176.5,-1343 176.5,-1349 170.5,-1355 164.5,-1355"/>
<text text-anchor="middle" x="113" y="-1334.2" font-family="sans" font-size="11.00" fill="white">kernel_.auto_exploit</text>
</g>
<!-- PHASE2&#45;&gt;EXPLOIT -->
<g id="edge5" class="edge">
<title>PHASE2&#45;&gt;EXPLOIT</title>
<path fill="none" stroke="#888899" d="M113,-1385.9C113,-1379.7 113,-1372.5 113,-1365.6"/>
<polygon fill="#888899" stroke="#888899" points="116.5,-1365.2 113,-1355.2 109.5,-1365.2 116.5,-1365.2"/>
</g>
<!-- ROOTED -->
<g id="node7" class="node">
<title>ROOTED</title>
<path fill="#f1c40f" stroke="white" d="M101.26,-1285.52C101.26,-1285.52 39.66,-1272.48 39.66,-1272.48 33.79,-1271.24 33.79,-1268.76 39.66,-1267.52 39.66,-1267.52 101.26,-1254.48 101.26,-1254.48 107.13,-1253.24 118.87,-1253.24 124.74,-1254.48 124.74,-1254.48 186.34,-1267.52 186.34,-1267.52 192.21,-1268.76 192.21,-1271.24 186.34,-1272.48 186.34,-1272.48 124.74,-1285.52 124.74,-1285.52 118.87,-1286.76 107.13,-1286.76 101.26,-1285.52"/>
<text text-anchor="middle" x="113" y="-1267.2" font-family="sans" font-size="11.00">Root obtained?</text>
</g>
<!-- EXPLOIT&#45;&gt;ROOTED -->
<g id="edge6" class="edge">
<title>EXPLOIT&#45;&gt;ROOTED</title>
<path fill="none" stroke="#888899" d="M113,-1318.9C113,-1312.7 113,-1305.5 113,-1298.6"/>
<polygon fill="#888899" stroke="#888899" points="116.5,-1298.2 113,-1288.2 109.5,-1298.2 116.5,-1298.2"/>
</g>
<!-- SELINUX -->
<g id="node8" class="node">
<title>SELINUX</title>
<path fill="#27ae60" stroke="white" d="M88,-1211C88,-1211 12,-1211 12,-1211 6,-1211 0,-1205 0,-1199 0,-1199 0,-1187 0,-1187 0,-1181 6,-1175 12,-1175 12,-1175 88,-1175 88,-1175 94,-1175 100,-1181 100,-1187 100,-1187 100,-1199 100,-1199 100,-1205 94,-1211 88,-1211"/>
<text text-anchor="middle" x="50" y="-1190.2" font-family="sans" font-size="11.00" fill="white">disable_selinux</text>
</g>
<!-- ROOTED&#45;&gt;SELINUX -->
<g id="edge7" class="edge">
<title>ROOTED&#45;&gt;SELINUX</title>
<path fill="none" stroke="#888899" d="M100.85,-1254.5C92.37,-1244.4 80.83,-1230.7 70.89,-1218.9"/>
<polygon fill="#888899" stroke="#888899" points="73.4,-1216.45 64.31,-1211 68.02,-1220.93 73.4,-1216.45"/>
<text text-anchor="middle" x="94" y="-1229" font-family="sans" font-size="10.00" fill="white">Yes</text>
</g>
<!-- CONTINUE -->
<g id="node9" class="node">
<title>CONTINUE</title>
<path fill="#7f8c8d" stroke="white" d="M222,-1211C222,-1211 134,-1211 134,-1211 128,-1211 122,-1205 122,-1199 122,-1199 122,-1187 122,-1187 122,-1181 128,-1175 134,-1175 134,-1175 222,-1175 222,-1175 228,-1175 234,-1181 234,-1187 234,-1187 234,-1199 234,-1199 234,-1205 228,-1211 222,-1211"/>
<text text-anchor="middle" x="178" y="-1190.2" font-family="sans" font-size="11.00" fill="white">Continue anyway</text>
</g>
<!-- ROOTED&#45;&gt;CONTINUE -->
<g id="edge8" class="edge">
<title>ROOTED&#45;&gt;CONTINUE</title>
<path fill="none" stroke="#888899" d="M125.53,-1254.5C134.29,-1244.4 146.19,-1230.7 156.45,-1218.9"/>
<polygon fill="#888899" stroke="#888899" points="159.37,-1220.87 163.23,-1211 154.06,-1216.31 159.37,-1220.87"/>
<text text-anchor="middle" x="157" y="-1229" font-family="sans" font-size="10.00" fill="white">No</text>
</g>
<!-- PHASE3 -->
<g id="node10" class="node">
<title>PHASE3</title>
<path fill="#d35400" stroke="white" d="M166.5,-1144C166.5,-1144 59.5,-1144 59.5,-1144 53.5,-1144 47.5,-1138 47.5,-1132 47.5,-1132 47.5,-1120 47.5,-1120 47.5,-1114 53.5,-1108 59.5,-1108 59.5,-1108 166.5,-1108 166.5,-1108 172.5,-1108 178.5,-1114 178.5,-1120 178.5,-1120 178.5,-1132 178.5,-1132 178.5,-1138 172.5,-1144 166.5,-1144"/>
<text text-anchor="middle" x="113" y="-1123.2" font-family="sans" font-size="11.00" fill="white">Phase 3: HW Control</text>
</g>
<!-- SELINUX&#45;&gt;PHASE3 -->
<g id="edge9" class="edge">
<title>SELINUX&#45;&gt;PHASE3</title>
<path fill="none" stroke="#888899" d="M66.55,-1174.9C73.44,-1167.8 81.58,-1159.4 89.09,-1151.7"/>
<polygon fill="#888899" stroke="#888899" points="91.91,-1153.82 96.34,-1144.2 86.87,-1148.96 91.91,-1153.82"/>
</g>
<!-- CONTINUE&#45;&gt;PHASE3 -->
<g id="edge10" class="edge">
<title>CONTINUE&#45;&gt;PHASE3</title>
<path fill="none" stroke="#888899" d="M160.92,-1174.9C153.81,-1167.8 145.42,-1159.4 137.66,-1151.7"/>
<polygon fill="#888899" stroke="#888899" points="139.73,-1148.82 130.19,-1144.2 134.77,-1153.76 139.73,-1148.82"/>
</g>
<!-- DISPLAY -->
<g id="node11" class="node">
<title>DISPLAY</title>
<path fill="#2980b9" stroke="white" d="M153,-1077C153,-1077 73,-1077 73,-1077 67,-1077 61,-1071 61,-1065 61,-1065 61,-1053 61,-1053 61,-1047 67,-1041 73,-1041 73,-1041 153,-1041 153,-1041 159,-1041 165,-1047 165,-1053 165,-1053 165,-1065 165,-1065 165,-1071 159,-1077 153,-1077"/>
<text text-anchor="middle" x="113" y="-1056.2" font-family="sans" font-size="11.00" fill="white">display_get_info</text>
</g>
<!-- PHASE3&#45;&gt;DISPLAY -->
<g id="edge11" class="edge">
<title>PHASE3&#45;&gt;DISPLAY</title>
<path fill="none" stroke="#888899" d="M113,-1107.9C113,-1101.7 113,-1094.5 113,-1087.6"/>
<polygon fill="#888899" stroke="#888899" points="116.5,-1087.2 113,-1077.2 109.5,-1087.2 116.5,-1087.2"/>
</g>
<!-- TOUCH -->
<g id="node12" class="node">
<title>TOUCH</title>
<path fill="#8e44ad" stroke="white" d="M163.5,-1010C163.5,-1010 62.5,-1010 62.5,-1010 56.5,-1010 50.5,-1004 50.5,-998 50.5,-998 50.5,-986 50.5,-986 50.5,-980 56.5,-974 62.5,-974 62.5,-974 163.5,-974 163.5,-974 169.5,-974 175.5,-980 175.5,-986 175.5,-986 175.5,-998 175.5,-998 175.5,-1004 169.5,-1010 163.5,-1010"/>
<text text-anchor="middle" x="113" y="-989.2" font-family="sans" font-size="11.00" fill="white">detect touch / GPIO</text>
</g>
<!-- DISPLAY&#45;&gt;TOUCH -->
<g id="edge12" class="edge">
<title>DISPLAY&#45;&gt;TOUCH</title>
<path fill="none" stroke="#888899" d="M113,-1040.9C113,-1034.7 113,-1027.5 113,-1020.6"/>
<polygon fill="#888899" stroke="#888899" points="116.5,-1020.2 113,-1010.2 109.5,-1020.2 116.5,-1020.2"/>
</g>
<!-- PHASE4 -->
<g id="node13" class="node">
<title>PHASE4</title>
<path fill="#d35400" stroke="white" d="M154.5,-943C154.5,-943 71.5,-943 71.5,-943 65.5,-943 59.5,-937 59.5,-931 59.5,-931 59.5,-919 59.5,-919 59.5,-913 65.5,-907 71.5,-907 71.5,-907 154.5,-907 154.5,-907 160.5,-907 166.5,-913 166.5,-919 166.5,-919 166.5,-931 166.5,-931 166.5,-937 160.5,-943 154.5,-943"/>
<text text-anchor="middle" x="113" y="-922.2" font-family="sans" font-size="11.00" fill="white">Phase 4: Bypass</text>
</g>
<!-- TOUCH&#45;&gt;PHASE4 -->
<g id="edge13" class="edge">
<title>TOUCH&#45;&gt;PHASE4</title>
<path fill="none" stroke="#888899" d="M113,-973.92C113,-967.7 113,-960.5 113,-953.6"/>
<polygon fill="#888899" stroke="#888899" points="116.5,-953.19 113,-943.19 109.5,-953.19 116.5,-953.19"/>
</g>
<!-- WAKE -->
<g id="node14" class="node">
<title>WAKE</title>
<path fill="#2980b9" stroke="white" d="M147.5,-876C147.5,-876 78.5,-876 78.5,-876 72.5,-876 66.5,-870 66.5,-864 66.5,-864 66.5,-852 66.5,-852 66.5,-846 72.5,-840 78.5,-840 78.5,-840 147.5,-840 147.5,-840 153.5,-840 159.5,-846 159.5,-852 159.5,-852 159.5,-864 159.5,-864 159.5,-870 153.5,-876 147.5,-876"/>
<text text-anchor="middle" x="113" y="-855.2" font-family="sans" font-size="11.00" fill="white">wake + swipe</text>
</g>
<!-- PHASE4&#45;&gt;WAKE -->
<g id="edge14" class="edge">
<title>PHASE4&#45;&gt;WAKE</title>
<path fill="none" stroke="#888899" d="M113,-906.92C113,-900.7 113,-893.5 113,-886.6"/>
<polygon fill="#888899" stroke="#888899" points="116.5,-886.19 113,-876.19 109.5,-886.19 116.5,-886.19"/>
</g>
<!-- UNLOCKED -->
<g id="node15" class="node">
<title>UNLOCKED</title>
<path fill="#f1c40f" stroke="white" d="M101.19,-806.86C101.19,-806.86 25.31,-793.14 25.31,-793.14 19.4,-792.07 19.4,-789.93 25.31,-788.86 25.31,-788.86 101.19,-775.14 101.19,-775.14 107.1,-774.07 118.9,-774.07 124.81,-775.14 124.81,-775.14 200.69,-788.86 200.69,-788.86 206.6,-789.93 206.6,-792.07 200.69,-793.14 200.69,-793.14 124.81,-806.86 124.81,-806.86 118.9,-807.93 107.1,-807.93 101.19,-806.86"/>
<text text-anchor="middle" x="113" y="-788.2" font-family="sans" font-size="11.00">Already unlocked?</text>
</g>
<!-- WAKE&#45;&gt;UNLOCKED -->
<g id="edge15" class="edge">
<title>WAKE&#45;&gt;UNLOCKED</title>
<path fill="none" stroke="#888899" d="M113,-839.92C113,-833.7 113,-826.5 113,-819.6"/>
<polygon fill="#888899" stroke="#888899" points="116.5,-819.19 113,-809.19 109.5,-819.19 116.5,-819.19"/>
</g>
<!-- DONE -->
<g id="node16" class="node">
<title>DONE</title>
<path fill="#27ae60" stroke="white" d="M122.5,-732C122.5,-732 61.5,-732 61.5,-732 55.5,-732 49.5,-726 49.5,-720 49.5,-720 49.5,-700 49.5,-700 49.5,-694 55.5,-688 61.5,-688 61.5,-688 122.5,-688 122.5,-688 128.5,-688 134.5,-694 134.5,-700 134.5,-700 134.5,-720 134.5,-720 134.5,-726 128.5,-732 122.5,-732"/>
<path fill="none" stroke="white" d="M126.5,-736C126.5,-736 57.5,-736 57.5,-736 51.5,-736 45.5,-730 45.5,-724 45.5,-724 45.5,-696 45.5,-696 45.5,-690 51.5,-684 57.5,-684 57.5,-684 126.5,-684 126.5,-684 132.5,-684 138.5,-690 138.5,-696 138.5,-696 138.5,-724 138.5,-724 138.5,-730 132.5,-736 126.5,-736"/>
<text text-anchor="middle" x="92" y="-707.2" font-family="sans" font-size="11.00" fill="white">Done &#45; exit</text>
</g>
<!-- UNLOCKED&#45;&gt;DONE -->
<g id="edge16" class="edge">
<title>UNLOCKED&#45;&gt;DONE</title>
<path fill="none" stroke="#888899" d="M108.65,-773.63C106.23,-764.52 103.13,-752.88 100.27,-742.1"/>
<polygon fill="#888899" stroke="#888899" points="103.58,-740.92 97.62,-732.16 96.81,-742.72 103.58,-740.92"/>
<text text-anchor="middle" x="113" y="-750" font-family="sans" font-size="10.00" fill="white">Yes</text>
</g>
<!-- PINLEN -->
<g id="node17" class="node">
<title>PINLEN</title>
<path fill="#d35400" stroke="white" d="M255.5,-728C255.5,-728 168.5,-728 168.5,-728 162.5,-728 156.5,-722 156.5,-716 156.5,-716 156.5,-704 156.5,-704 156.5,-698 162.5,-692 168.5,-692 168.5,-692 255.5,-692 255.5,-692 261.5,-692 267.5,-698 267.5,-704 267.5,-704 267.5,-716 267.5,-716 267.5,-722 261.5,-728 255.5,-728"/>
<text text-anchor="middle" x="212" y="-707.2" font-family="sans" font-size="11.00" fill="white">select_pin_length</text>
</g>
<!-- UNLOCKED&#45;&gt;PINLEN -->
<g id="edge17" class="edge">
<title>UNLOCKED&#45;&gt;PINLEN</title>
<path fill="none" stroke="#888899" d="M130.7,-775.88C145.13,-764.36 165.82,-747.85 182.72,-734.36"/>
<polygon fill="#888899" stroke="#888899" points="185.03,-736.99 190.67,-728.02 180.67,-731.52 185.03,-736.99"/>
<text text-anchor="middle" x="173" y="-750" font-family="sans" font-size="10.00" fill="white">No</text>
</g>
<!-- GRID -->
<g id="node18" class="node">
<title>GRID</title>
<path fill="#16a085" stroke="white" d="M249,-657C249,-657 175,-657 175,-657 169,-657 163,-651 163,-645 163,-645 163,-633 163,-633 163,-627 169,-621 175,-621 175,-621 249,-621 249,-621 255,-621 261,-627 261,-633 261,-633 261,-645 261,-645 261,-651 255,-657 249,-657"/>
<text text-anchor="middle" x="212" y="-636.2" font-family="sans" font-size="11.00" fill="white">select_pin_grid</text>
</g>
<!-- PINLEN&#45;&gt;GRID -->
<g id="edge18" class="edge">
<title>PINLEN&#45;&gt;GRID</title>
<path fill="none" stroke="#888899" d="M212,-691.94C212,-684.54 212,-675.67 212,-667.38"/>
<polygon fill="#888899" stroke="#888899" points="215.5,-667.34 212,-657.34 208.5,-667.34 215.5,-667.34"/>
</g>
<!-- METHOD -->
<g id="node19" class="node">
<title>METHOD</title>
<path fill="#8e44ad" stroke="white" d="M265,-590C265,-590 159,-590 159,-590 153,-590 147,-584 147,-578 147,-578 147,-566 147,-566 147,-560 153,-554 159,-554 159,-554 265,-554 265,-554 271,-554 277,-560 277,-566 277,-566 277,-578 277,-578 277,-584 271,-590 265,-590"/>
<text text-anchor="middle" x="212" y="-569.2" font-family="sans" font-size="11.00" fill="white">select_input_method</text>
</g>
<!-- GRID&#45;&gt;METHOD -->
<g id="edge19" class="edge">
<title>GRID&#45;&gt;METHOD</title>
<path fill="none" stroke="#888899" d="M212,-620.92C212,-614.7 212,-607.5 212,-600.6"/>
<polygon fill="#888899" stroke="#888899" points="215.5,-600.19 212,-590.19 208.5,-600.19 215.5,-600.19"/>
</g>
<!-- PHASE5 -->
<g id="node20" class="node">
<title>PHASE5</title>
<path fill="#d35400" stroke="white" d="M265.5,-523C265.5,-523 158.5,-523 158.5,-523 152.5,-523 146.5,-517 146.5,-511 146.5,-511 146.5,-499 146.5,-499 146.5,-493 152.5,-487 158.5,-487 158.5,-487 265.5,-487 265.5,-487 271.5,-487 277.5,-493 277.5,-499 277.5,-499 277.5,-511 277.5,-511 277.5,-517 271.5,-523 265.5,-523"/>
<text text-anchor="middle" x="212" y="-502.2" font-family="sans" font-size="11.00" fill="white">Phase 5: Brute Force</text>
</g>
<!-- METHOD&#45;&gt;PHASE5 -->
<g id="edge20" class="edge">
<title>METHOD&#45;&gt;PHASE5</title>
<path fill="none" stroke="#888899" d="M212,-553.92C212,-547.7 212,-540.5 212,-533.6"/>
<polygon fill="#888899" stroke="#888899" points="215.5,-533.19 212,-523.19 208.5,-533.19 215.5,-533.19"/>
</g>
<!-- GEN -->
<g id="node21" class="node">
<title>GEN</title>
<path fill="#2980b9" stroke="white" d="M255,-456C255,-456 169,-456 169,-456 163,-456 157,-450 157,-444 157,-444 157,-432 157,-432 157,-426 163,-420 169,-420 169,-420 255,-420 255,-420 261,-420 267,-426 267,-432 267,-432 267,-444 267,-444 267,-450 261,-456 255,-456"/>
<text text-anchor="middle" x="212" y="-435.2" font-family="sans" font-size="11.00" fill="white">generate_pin_list</text>
</g>
<!-- PHASE5&#45;&gt;GEN -->
<g id="edge21" class="edge">
<title>PHASE5&#45;&gt;GEN</title>
<path fill="none" stroke="#888899" d="M212,-486.92C212,-480.7 212,-473.5 212,-466.6"/>
<polygon fill="#888899" stroke="#888899" points="215.5,-466.19 212,-456.19 208.5,-466.19 215.5,-466.19"/>
</g>
<!-- LOOP -->
<g id="node22" class="node">
<title>LOOP</title>
<path fill="#c0392b" stroke="white" d="M249,-389C249,-389 175,-389 175,-389 169,-389 163,-383 163,-377 163,-377 163,-365 163,-365 163,-359 169,-353 175,-353 175,-353 249,-353 249,-353 255,-353 261,-359 261,-365 261,-365 261,-377 261,-377 261,-383 255,-389 249,-389"/>
<text text-anchor="middle" x="212" y="-368.2" font-family="sans" font-size="11.00" fill="white">run_brute_loop</text>
</g>
<!-- GEN&#45;&gt;LOOP -->
<g id="edge22" class="edge">
<title>GEN&#45;&gt;LOOP</title>
<path fill="none" stroke="#888899" d="M212,-419.92C212,-413.7 212,-406.5 212,-399.6"/>
<polygon fill="#888899" stroke="#888899" points="215.5,-399.19 212,-389.19 208.5,-399.19 215.5,-399.19"/>
</g>
<!-- FOUND -->
<g id="node23" class="node">
<title>FOUND</title>
<path fill="#f1c40f" stroke="white" d="M200.45,-318.75C200.45,-318.75 159.55,-307.25 159.55,-307.25 153.78,-305.62 153.78,-302.38 159.55,-300.75 159.55,-300.75 200.45,-289.25 200.45,-289.25 206.22,-287.62 217.78,-287.62 223.55,-289.25 223.55,-289.25 264.45,-300.75 264.45,-300.75 270.22,-302.38 270.22,-305.62 264.45,-307.25 264.45,-307.25 223.55,-318.75 223.55,-318.75 217.78,-320.38 206.22,-320.38 200.45,-318.75"/>
<text text-anchor="middle" x="212" y="-301.2" font-family="sans" font-size="11.00">PIN found?</text>
</g>
<!-- LOOP&#45;&gt;FOUND -->
<g id="edge23" class="edge">
<title>LOOP&#45;&gt;FOUND</title>
<path fill="none" stroke="#888899" d="M212,-352.92C212,-346.7 212,-339.5 212,-332.6"/>
<polygon fill="#888899" stroke="#888899" points="215.5,-332.19 212,-322.19 208.5,-332.19 215.5,-332.19"/>
</g>
<!-- WIN -->
<g id="node24" class="node">
<title>WIN</title>
<path fill="#27ae60" stroke="white" d="M190,-245C190,-245 128,-245 128,-245 122,-245 116,-239 116,-233 116,-233 116,-213 116,-213 116,-207 122,-201 128,-201 128,-201 190,-201 190,-201 196,-201 202,-207 202,-213 202,-213 202,-233 202,-233 202,-239 196,-245 190,-245"/>
<path fill="none" stroke="white" d="M194,-249C194,-249 124,-249 124,-249 118,-249 112,-243 112,-237 112,-237 112,-209 112,-209 112,-203 118,-197 124,-197 124,-197 194,-197 194,-197 200,-197 206,-203 206,-209 206,-209 206,-237 206,-237 206,-243 200,-249 194,-249"/>
<text text-anchor="middle" x="159" y="-220.2" font-family="sans" font-size="11.00" fill="white">PIN FOUND</text>
</g>
<!-- FOUND&#45;&gt;WIN -->
<g id="edge24" class="edge">
<title>FOUND&#45;&gt;WIN</title>
<path fill="none" stroke="#888899" d="M202.28,-288.51C195.74,-278.76 186.88,-265.56 178.88,-253.64"/>
<polygon fill="#888899" stroke="#888899" points="181.73,-251.61 173.26,-245.25 175.92,-255.51 181.73,-251.61"/>
<text text-anchor="middle" x="199" y="-263" font-family="sans" font-size="10.00" fill="white">Yes</text>
</g>
<!-- LOSE -->
<g id="node25" class="node">
<title>LOSE</title>
<path fill="#e74c3c" stroke="white" d="M294,-245C294,-245 236,-245 236,-245 230,-245 224,-239 224,-233 224,-233 224,-213 224,-213 224,-207 230,-201 236,-201 236,-201 294,-201 294,-201 300,-201 306,-207 306,-213 306,-213 306,-233 306,-233 306,-239 300,-245 294,-245"/>
<path fill="none" stroke="white" d="M298,-249C298,-249 232,-249 232,-249 226,-249 220,-243 220,-237 220,-237 220,-209 220,-209 220,-203 226,-197 232,-197 232,-197 298,-197 298,-197 304,-197 310,-203 310,-209 310,-209 310,-237 310,-237 310,-243 304,-249 298,-249"/>
<text text-anchor="middle" x="265" y="-220.2" font-family="sans" font-size="11.00" fill="white">Exhausted</text>
</g>
<!-- FOUND&#45;&gt;LOSE -->
<g id="edge25" class="edge">
<title>FOUND&#45;&gt;LOSE</title>
<path fill="none" stroke="#888899" d="M221.72,-288.51C228.26,-278.76 237.12,-265.56 245.12,-253.64"/>
<polygon fill="#888899" stroke="#888899" points="248.08,-255.51 250.74,-245.25 242.27,-251.61 248.08,-255.51"/>
<text text-anchor="middle" x="247" y="-263" font-family="sans" font-size="10.00" fill="white">No</text>
</g>
<!-- PHASE6 -->
<g id="node26" class="node">
<title>PHASE6</title>
<path fill="#d35400" stroke="white" d="M255,-170C255,-170 167,-170 167,-170 161,-170 155,-164 155,-158 155,-158 155,-146 155,-146 155,-140 161,-134 167,-134 167,-134 255,-134 255,-134 261,-134 267,-140 267,-146 267,-146 267,-158 267,-158 267,-164 261,-170 255,-170"/>
<text text-anchor="middle" x="211" y="-149.2" font-family="sans" font-size="11.00" fill="white">Phase 6: Cleanup</text>
</g>
<!-- WIN&#45;&gt;PHASE6 -->
<g id="edge26" class="edge">
<title>WIN&#45;&gt;PHASE6</title>
<path fill="none" stroke="#888899" d="M174.88,-200.92C180.21,-193.86 186.2,-185.9 191.76,-178.54"/>
<polygon fill="#888899" stroke="#888899" points="194.79,-180.34 198,-170.24 189.19,-176.13 194.79,-180.34"/>
</g>
<!-- LOSE&#45;&gt;PHASE6 -->
<g id="edge27" class="edge">
<title>LOSE&#45;&gt;PHASE6</title>
<path fill="none" stroke="#888899" d="M248.5,-200.92C242.98,-193.86 236.75,-185.9 230.99,-178.54"/>
<polygon fill="#888899" stroke="#888899" points="233.42,-175.96 224.5,-170.24 227.9,-180.27 233.42,-175.96"/>
</g>
<!-- RESTORE -->
<g id="node27" class="node">
<title>RESTORE</title>
<path fill="#7f8c8d" stroke="white" d="M276,-103C276,-103 146,-103 146,-103 140,-103 134,-97 134,-91 134,-91 134,-79 134,-79 134,-73 140,-67 146,-67 146,-67 276,-67 276,-67 282,-67 288,-73 288,-79 288,-79 288,-91 288,-91 288,-97 282,-103 276,-103"/>
<text text-anchor="middle" x="211" y="-82.2" font-family="sans" font-size="11.00" fill="white">kd_fix_security + restore</text>
</g>
<!-- PHASE6&#45;&gt;RESTORE -->
<g id="edge28" class="edge">
<title>PHASE6&#45;&gt;RESTORE</title>
<path fill="none" stroke="#888899" d="M211,-133.92C211,-127.7 211,-120.5 211,-113.6"/>
<polygon fill="#888899" stroke="#888899" points="214.5,-113.19 211,-103.19 207.5,-113.19 214.5,-113.19"/>
</g>
<!-- SUMMARY -->
<g id="node28" class="node">
<title>SUMMARY</title>
<path fill="#2980b9" stroke="white" d="M264.5,-36C264.5,-36 157.5,-36 157.5,-36 151.5,-36 145.5,-30 145.5,-24 145.5,-24 145.5,-12 145.5,-12 145.5,-6 151.5,0 157.5,0 157.5,0 264.5,0 264.5,0 270.5,0 276.5,-6 276.5,-12 276.5,-12 276.5,-24 276.5,-24 276.5,-30 270.5,-36 264.5,-36"/>
<text text-anchor="middle" x="211" y="-15.2" font-family="sans" font-size="11.00" fill="white">Print chain summary</text>
</g>
<!-- RESTORE&#45;&gt;SUMMARY -->
<g id="edge29" class="edge">
<title>RESTORE&#45;&gt;SUMMARY</title>
<path fill="none" stroke="#888899" d="M211,-66.92C211,-60.7 211,-53.5 211,-46.6"/>
<polygon fill="#888899" stroke="#888899" points="214.5,-46.19 211,-36.19 207.5,-46.19 214.5,-46.19"/>
</g>
</g>
</svg>
