<?xml version="1.0" encoding="UTF-8" standalone="no"?>
<!DOCTYPE svg PUBLIC "-//W3C//DTD SVG 1.1//EN"
 "http://www.w3.org/Graphics/SVG/1.1/DTD/svg11.dtd">
<!-- Generated by graphviz version 2.42.4 (0)
 -->
<!-- Pages: 1 -->
<svg width="366pt" height="794pt"
 viewBox="0.00 0.00 365.50 794.00" xmlns="http://www.w3.org/2000/svg" xmlns:xlink="http://www.w3.org/1999/xlink">
<g id="graph0" class="graph" transform="scale(1 1) rotate(0) translate(4 790)">
<polygon fill="#1a1a2e" stroke="transparent" points="-4,4 -4,-790 361.5,-790 361.5,4 -4,4"/>
<!-- START -->
<g id="node1" class="node">
<title>START</title>
<path fill="#27ae60" stroke="white" d="M268.5,-786C268.5,-786 238.5,-786 238.5,-786 232.5,-786 226.5,-780 226.5,-774 226.5,-774 226.5,-762 226.5,-762 226.5,-756 232.5,-750 238.5,-750 238.5,-750 268.5,-750 268.5,-750 274.5,-750 280.5,-756 280.5,-762 280.5,-762 280.5,-774 280.5,-774 280.5,-780 274.5,-786 268.5,-786"/>
<text text-anchor="middle" x="253.5" y="-765.2" font-family="sans" font-size="11.00" fill="white">Start</text>
</g>
<!-- PHASE0 -->
<g id="node2" class="node">
<title>PHASE0</title>
<path fill="#d35400" stroke="white" d="M314.5,-719C314.5,-719 192.5,-719 192.5,-719 186.5,-719 180.5,-713 180.5,-707 180.5,-707 180.5,-695 180.5,-695 180.5,-689 186.5,-683 192.5,-683 192.5,-683 314.5,-683 314.5,-683 320.5,-683 326.5,-689 326.5,-695 326.5,-695 326.5,-707 326.5,-707 326.5,-713 320.5,-719 314.5,-719"/>
<text text-anchor="middle" x="253.5" y="-698.2" font-family="sans" font-size="11.00" fill="white">Phase 0: AI Markov 256</text>
</g>
<!-- START&#45;&gt;PHASE0 -->
<g id="edge1" class="edge">
<title>START&#45;&gt;PHASE0</title>
<path fill="none" stroke="#888899" d="M253.5,-749.92C253.5,-743.7 253.5,-736.5 253.5,-729.6"/>
<polygon fill="#888899" stroke="#888899" points="257,-729.19 253.5,-719.19 250,-729.19 257,-729.19"/>
</g>
<!-- FOUND0 -->
<g id="node3" class="node">
<title>FOUND0</title>
<path fill="#f1c40f" stroke="white" d="M241.95,-648.75C241.95,-648.75 201.05,-637.25 201.05,-637.25 195.28,-635.62 195.28,-632.38 201.05,-630.75 201.05,-630.75 241.95,-619.25 241.95,-619.25 247.72,-617.62 259.28,-617.62 265.05,-619.25 265.05,-619.25 305.95,-630.75 305.95,-630.75 311.72,-632.38 311.72,-635.62 305.95,-637.25 305.95,-637.25 265.05,-648.75 265.05,-648.75 259.28,-650.38 247.72,-650.38 241.95,-648.75"/>
<text text-anchor="middle" x="253.5" y="-631.2" font-family="sans" font-size="11.00">PIN found?</text>
</g>
<!-- PHASE0&#45;&gt;FOUND0 -->
<g id="edge2" class="edge">
<title>PHASE0&#45;&gt;FOUND0</title>
<path fill="none" stroke="#888899" d="M253.5,-682.92C253.5,-676.7 253.5,-669.5 253.5,-662.6"/>
<polygon fill="#888899" stroke="#888899" points="257,-662.19 253.5,-652.19 250,-662.19 257,-662.19"/>
</g>
<!-- PHASE1 -->
<g id="node4" class="node">
<title>PHASE1</title>
<path fill="#d35400" stroke="white" d="M265,-575C265,-575 128,-575 128,-575 122,-575 116,-569 116,-563 116,-563 116,-551 116,-551 116,-545 122,-539 128,-539 128,-539 265,-539 265,-539 271,-539 277,-545 277,-551 277,-551 277,-563 277,-563 277,-569 271,-575 265,-575"/>
<text text-anchor="middle" x="196.5" y="-554.2" font-family="sans" font-size="11.00" fill="white">Phase 1: Common PINs 50</text>
</g>
<!-- FOUND0&#45;&gt;PHASE1 -->
<g id="edge3" class="edge">
<title>FOUND0&#45;&gt;PHASE1</title>
<path fill="none" stroke="#888899" d="M242.78,-618.89C235.2,-608.92 224.83,-595.28 215.83,-583.43"/>
<polygon fill="#888899" stroke="#888899" points="218.41,-581.04 209.57,-575.2 212.84,-585.28 218.41,-581.04"/>
<text text-anchor="middle" x="234.5" y="-593" font-family="sans" font-size="10.00" fill="white">No</text>
</g>
<!-- WIN -->
<g id="node5" class="node">
<title>WIN</title>
<path fill="#27ae60" stroke="white" d="M296.5,-123C296.5,-123 234.5,-123 234.5,-123 228.5,-123 222.5,-117 222.5,-111 222.5,-111 222.5,-91 222.5,-91 222.5,-85 228.5,-79 234.5,-79 234.5,-79 296.5,-79 296.5,-79 302.5,-79 308.5,-85 308.5,-91 308.5,-91 308.5,-111 308.5,-111 308.5,-117 302.5,-123 296.5,-123"/>
<path fill="none" stroke="white" d="M300.5,-127C300.5,-127 230.5,-127 230.5,-127 224.5,-127 218.5,-121 218.5,-115 218.5,-115 218.5,-87 218.5,-87 218.5,-81 224.5,-75 230.5,-75 230.5,-75 300.5,-75 300.5,-75 306.5,-75 312.5,-81 312.5,-87 312.5,-87 312.5,-115 312.5,-115 312.5,-121 306.5,-127 300.5,-127"/>
<text text-anchor="middle" x="265.5" y="-98.2" font-family="sans" font-size="11.00" fill="white">PIN FOUND</text>
</g>
<!-- FOUND0&#45;&gt;WIN -->
<g id="edge4" class="edge">
<title>FOUND0&#45;&gt;WIN</title>
<path fill="none" stroke="#888899" d="M271.22,-620.88C288.27,-607.62 311.5,-584.67 311.5,-558 311.5,-558 311.5,-558 311.5,-181 311.5,-162.99 302.47,-145.43 292.4,-131.46"/>
<polygon fill="#888899" stroke="#888899" points="294.95,-129.04 286.08,-123.25 289.41,-133.31 294.95,-129.04"/>
<text text-anchor="middle" x="319.5" y="-372" font-family="sans" font-size="10.00" fill="white">Yes</text>
</g>
<!-- FOUND1 -->
<g id="node6" class="node">
<title>FOUND1</title>
<path fill="#f1c40f" stroke="white" d="M184.95,-504.75C184.95,-504.75 144.05,-493.25 144.05,-493.25 138.28,-491.62 138.28,-488.38 144.05,-486.75 144.05,-486.75 184.95,-475.25 184.95,-475.25 190.72,-473.62 202.28,-473.62 208.05,-475.25 208.05,-475.25 248.95,-486.75 248.95,-486.75 254.72,-488.38 254.72,-491.62 248.95,-493.25 248.95,-493.25 208.05,-504.75 208.05,-504.75 202.28,-506.38 190.72,-506.38 184.95,-504.75"/>
<text text-anchor="middle" x="196.5" y="-487.2" font-family="sans" font-size="11.00">PIN found?</text>
</g>
<!-- PHASE1&#45;&gt;FOUND1 -->
<g id="edge5" class="edge">
<title>PHASE1&#45;&gt;FOUND1</title>
<path fill="none" stroke="#888899" d="M196.5,-538.92C196.5,-532.7 196.5,-525.5 196.5,-518.6"/>
<polygon fill="#888899" stroke="#888899" points="200,-518.19 196.5,-508.19 193,-518.19 200,-518.19"/>
</g>
<!-- SHOWWIN -->
<g id="node7" class="node">
<title>SHOWWIN</title>
<path fill="#27ae60" stroke="white" d="M341.5,-48C341.5,-48 201.5,-48 201.5,-48 195.5,-48 189.5,-42 189.5,-36 189.5,-36 189.5,-16 189.5,-16 189.5,-10 195.5,-4 201.5,-4 201.5,-4 341.5,-4 341.5,-4 347.5,-4 353.5,-10 353.5,-16 353.5,-16 353.5,-36 353.5,-36 353.5,-42 347.5,-48 341.5,-48"/>
<path fill="none" stroke="white" d="M345.5,-52C345.5,-52 197.5,-52 197.5,-52 191.5,-52 185.5,-46 185.5,-40 185.5,-40 185.5,-12 185.5,-12 185.5,-6 191.5,0 197.5,0 197.5,0 345.5,0 345.5,0 351.5,0 357.5,-6 357.5,-12 357.5,-12 357.5,-40 357.5,-40 357.5,-46 351.5,-52 345.5,-52"/>
<text text-anchor="middle" x="271.5" y="-23.2" font-family="sans" font-size="11.00" fill="white">Show PIN + Stats + Save</text>
</g>
<!-- WIN&#45;&gt;SHOWWIN -->
<g id="edge6" class="edge">
<title>WIN&#45;&gt;SHOWWIN</title>
<path fill="none" stroke="#888899" d="M267.24,-78.89C267.77,-72.38 268.37,-65.07 268.95,-58.04"/>
<polygon fill="#888899" stroke="#888899" points="272.44,-58.32 269.77,-48.07 265.46,-57.75 272.44,-58.32"/>
</g>
<!-- FOUND1&#45;&gt;WIN -->
<g id="edge7" class="edge">
<title>FOUND1&#45;&gt;WIN</title>
<path fill="none" stroke="#888899" d="M217.58,-477.68C237.87,-465.08 265.5,-442.66 265.5,-414 265.5,-414 265.5,-414 265.5,-181 265.5,-165.37 265.5,-148 265.5,-133.54"/>
<polygon fill="#888899" stroke="#888899" points="269,-133.12 265.5,-123.12 262,-133.12 269,-133.12"/>
<text text-anchor="middle" x="273.5" y="-295" font-family="sans" font-size="10.00" fill="white">Yes</text>
</g>
<!-- PHASE2 -->
<g id="node8" class="node">
<title>PHASE2</title>
<path fill="#d35400" stroke="white" d="M219.5,-431C219.5,-431 93.5,-431 93.5,-431 87.5,-431 81.5,-425 81.5,-419 81.5,-419 81.5,-407 81.5,-407 81.5,-401 87.5,-395 93.5,-395 93.5,-395 219.5,-395 219.5,-395 225.5,-395 231.5,-401 231.5,-407 231.5,-407 231.5,-419 231.5,-419 231.5,-425 225.5,-431 219.5,-431"/>
<text text-anchor="middle" x="156.5" y="-410.2" font-family="sans" font-size="11.00" fill="white">Phase 2: Device&#45;specific</text>
</g>
<!-- FOUND1&#45;&gt;PHASE2 -->
<g id="edge8" class="edge">
<title>FOUND1&#45;&gt;PHASE2</title>
<path fill="none" stroke="#888899" d="M188.6,-474.18C183.44,-464.51 176.56,-451.61 170.49,-440.24"/>
<polygon fill="#888899" stroke="#888899" points="173.44,-438.33 165.65,-431.15 167.26,-441.62 173.44,-438.33"/>
<text text-anchor="middle" x="186.5" y="-449" font-family="sans" font-size="10.00" fill="white">No</text>
</g>
<!-- FOUND2 -->
<g id="node9" class="node">
<title>FOUND2</title>
<path fill="#f1c40f" stroke="white" d="M144.95,-350.75C144.95,-350.75 104.05,-339.25 104.05,-339.25 98.28,-337.62 98.28,-334.38 104.05,-332.75 104.05,-332.75 144.95,-321.25 144.95,-321.25 150.72,-319.62 162.28,-319.62 168.05,-321.25 168.05,-321.25 208.95,-332.75 208.95,-332.75 214.72,-334.38 214.72,-337.62 208.95,-339.25 208.95,-339.25 168.05,-350.75 168.05,-350.75 162.28,-352.38 150.72,-352.38 144.95,-350.75"/>
<text text-anchor="middle" x="156.5" y="-333.2" font-family="sans" font-size="11.00">PIN found?</text>
</g>
<!-- PHASE2&#45;&gt;FOUND2 -->
<g id="edge9" class="edge">
<title>PHASE2&#45;&gt;FOUND2</title>
<path fill="none" stroke="#888899" d="M156.5,-394.98C156.5,-385.94 156.5,-374.6 156.5,-364.35"/>
<polygon fill="#888899" stroke="#888899" points="160,-364.21 156.5,-354.21 153,-364.21 160,-364.21"/>
</g>
<!-- FOUND2&#45;&gt;WIN -->
<g id="edge10" class="edge">
<title>FOUND2&#45;&gt;WIN</title>
<path fill="none" stroke="#888899" d="M167.06,-320.73C175.23,-309.29 186.46,-292.63 194.5,-277 224.83,-218.07 222.33,-198.89 248.5,-138 249.28,-136.19 250.09,-134.34 250.93,-132.47"/>
<polygon fill="#888899" stroke="#888899" points="254.19,-133.76 255.18,-123.21 247.83,-130.84 254.19,-133.76"/>
<text text-anchor="middle" x="228.5" y="-218" font-family="sans" font-size="10.00" fill="white">Yes</text>
</g>
<!-- PHASE3 -->
<g id="node10" class="node">
<title>PHASE3</title>
<path fill="#d35400" stroke="white" d="M172,-277C172,-277 71,-277 71,-277 65,-277 59,-271 59,-265 59,-265 59,-253 59,-253 59,-247 65,-241 71,-241 71,-241 172,-241 172,-241 178,-241 184,-247 184,-253 184,-253 184,-265 184,-265 184,-271 178,-277 172,-277"/>
<text text-anchor="middle" x="121.5" y="-256.2" font-family="sans" font-size="11.00" fill="white">Phase 3: Sequential</text>
</g>
<!-- FOUND2&#45;&gt;PHASE3 -->
<g id="edge11" class="edge">
<title>FOUND2&#45;&gt;PHASE3</title>
<path fill="none" stroke="#888899" d="M149.42,-319.82C144.97,-310.29 139.11,-297.73 133.9,-286.58"/>
<polygon fill="#888899" stroke="#888899" points="136.95,-284.83 129.55,-277.25 130.6,-287.79 136.95,-284.83"/>
<text text-anchor="middle" x="148.5" y="-295" font-family="sans" font-size="10.00" fill="white">No</text>
</g>
<!-- FOUND3 -->
<g id="node11" class="node">
<title>FOUND3</title>
<path fill="#f1c40f" stroke="white" d="M109.95,-196.75C109.95,-196.75 69.05,-185.25 69.05,-185.25 63.28,-183.62 63.28,-180.38 69.05,-178.75 69.05,-178.75 109.95,-167.25 109.95,-167.25 115.72,-165.62 127.28,-165.62 133.05,-167.25 133.05,-167.25 173.95,-178.75 173.95,-178.75 179.72,-180.38 179.72,-183.62 173.95,-185.25 173.95,-185.25 133.05,-196.75 133.05,-196.75 127.28,-198.38 115.72,-198.38 109.95,-196.75"/>
<text text-anchor="middle" x="121.5" y="-179.2" font-family="sans" font-size="11.00">PIN found?</text>
</g>
<!-- PHASE3&#45;&gt;FOUND3 -->
<g id="edge12" class="edge">
<title>PHASE3&#45;&gt;FOUND3</title>
<path fill="none" stroke="#888899" d="M121.5,-240.98C121.5,-231.94 121.5,-220.6 121.5,-210.35"/>
<polygon fill="#888899" stroke="#888899" points="125,-210.21 121.5,-200.21 118,-210.21 125,-210.21"/>
</g>
<!-- FOUND3&#45;&gt;WIN -->
<g id="edge13" class="edge">
<title>FOUND3&#45;&gt;WIN</title>
<path fill="none" stroke="#888899" d="M138.42,-168.74C151.28,-159.7 169.58,-147.38 186.5,-138 194.91,-133.34 204.04,-128.76 213.01,-124.52"/>
<polygon fill="#888899" stroke="#888899" points="214.66,-127.61 222.26,-120.23 211.72,-121.26 214.66,-127.61"/>
<text text-anchor="middle" x="194.5" y="-141" font-family="sans" font-size="10.00" fill="white">Yes</text>
</g>
<!-- LOSE -->
<g id="node12" class="node">
<title>LOSE</title>
<path fill="#e74c3c" stroke="white" d="M130,-123C130,-123 51,-123 51,-123 45,-123 39,-117 39,-111 39,-111 39,-91 39,-91 39,-85 45,-79 51,-79 51,-79 130,-79 130,-79 136,-79 142,-85 142,-91 142,-91 142,-111 142,-111 142,-117 136,-123 130,-123"/>
<path fill="none" stroke="white" d="M134,-127C134,-127 47,-127 47,-127 41,-127 35,-121 35,-115 35,-115 35,-87 35,-87 35,-81 41,-75 47,-75 47,-75 134,-75 134,-75 140,-75 146,-81 146,-87 146,-87 146,-115 146,-115 146,-121 140,-127 134,-127"/>
<text text-anchor="middle" x="90.5" y="-98.2" font-family="sans" font-size="11.00" fill="white">PIN Not Found</text>
</g>
<!-- FOUND3&#45;&gt;LOSE -->
<g id="edge14" class="edge">
<title>FOUND3&#45;&gt;LOSE</title>
<path fill="none" stroke="#888899" d="M115.38,-165.39C111.72,-156.07 106.94,-143.91 102.56,-132.73"/>
<polygon fill="#888899" stroke="#888899" points="105.75,-131.29 98.84,-123.26 99.24,-133.85 105.75,-131.29"/>
<text text-anchor="middle" x="116.5" y="-141" font-family="sans" font-size="10.00" fill="white">No</text>
</g>
<!-- SHOWLOSE -->
<g id="node13" class="node">
<title>SHOWLOSE</title>
<path fill="#e74c3c" stroke="white" d="M155,-48C155,-48 16,-48 16,-48 10,-48 4,-42 4,-36 4,-36 4,-16 4,-16 4,-10 10,-4 16,-4 16,-4 155,-4 155,-4 161,-4 167,-10 167,-16 167,-16 167,-36 167,-36 167,-42 161,-48 155,-48"/>
<path fill="none" stroke="white" d="M159,-52C159,-52 12,-52 12,-52 6,-52 0,-46 0,-40 0,-40 0,-12 0,-12 0,-6 6,0 12,0 12,0 159,0 159,0 165,0 171,-6 171,-12 171,-12 171,-40 171,-40 171,-46 165,-52 159,-52"/>
<text text-anchor="middle" x="85.5" y="-23.2" font-family="sans" font-size="11.00" fill="white">Show Failure + Summary</text>
</g>
<!-- LOSE&#45;&gt;SHOWLOSE -->
<g id="edge15" class="edge">
<title>LOSE&#45;&gt;SHOWLOSE</title>
<path fill="none" stroke="#888899" d="M89.05,-78.89C88.62,-72.53 88.13,-65.41 87.66,-58.53"/>
<polygon fill="#888899" stroke="#888899" points="91.12,-57.8 86.94,-48.07 84.13,-58.28 91.12,-57.8"/>
</g>
</g>
</svg>
