<?xml version="1.0" encoding="UTF-8" standalone="no"?>
<!DOCTYPE svg PUBLIC "-//W3C//DTD SVG 1.1//EN"
 "http://www.w3.org/Graphics/SVG/1.1/DTD/svg11.dtd">
<!-- Generated by graphviz version 2.42.4 (0)
 -->
<!-- Pages: 1 -->
<svg width="178pt" height="1681pt"
 viewBox="0.00 0.00 178.00 1681.00" xmlns="http://www.w3.org/2000/svg" xmlns:xlink="http://www.w3.org/1999/xlink">
<g id="graph0" class="graph" transform="scale(1 1) rotate(0) translate(4 1677)">
<polygon fill="#1a1a2e" stroke="transparent" points="-4,4 -4,-1677 174,-1677 174,4 -4,4"/>
<!-- START -->
<g id="node1" class="node">
<title>START</title>
<path fill="#27ae60" stroke="white" d="M118.5,-1673C118.5,-1673 51.5,-1673 51.5,-1673 45.5,-1673 39.5,-1667 39.5,-1661 39.5,-1661 39.5,-1649 39.5,-1649 39.5,-1643 45.5,-1637 51.5,-1637 51.5,-1637 118.5,-1637 118.5,-1637 124.5,-1637 130.5,-1643 130.5,-1649 130.5,-1649 130.5,-1661 130.5,-1661 130.5,-1667 124.5,-1673 118.5,-1673"/>
<text text-anchor="middle" x="85" y="-1652.5" font-family="sans" font-size="10.00" fill="white">safe_detect_all</text>
</g>
<!-- WATCHDOG -->
<g id="node2" class="node">
<title>WATCHDOG</title>
<path fill="#d35400" stroke="white" d="M138.5,-1608C138.5,-1608 31.5,-1608 31.5,-1608 25.5,-1608 19.5,-1602 19.5,-1596 19.5,-1596 19.5,-1584 19.5,-1584 19.5,-1578 25.5,-1572 31.5,-1572 31.5,-1572 138.5,-1572 138.5,-1572 144.5,-1572 150.5,-1578 150.5,-1584 150.5,-1584 150.5,-1596 150.5,-1596 150.5,-1602 144.5,-1608 138.5,-1608"/>
<text text-anchor="middle" x="85" y="-1587.5" font-family="sans" font-size="10.00" fill="white">25s SIGALRM watchdog</text>
</g>
<!-- START&#45;&gt;WATCHDOG -->
<g id="edge1" class="edge">
<title>START&#45;&gt;WATCHDOG</title>
<path fill="none" stroke="#888899" d="M85,-1636.8C85,-1631.1 85,-1624.6 85,-1618.3"/>
<polygon fill="#888899" stroke="#888899" points="88.5,-1618.2 85,-1608.2 81.5,-1618.2 88.5,-1618.2"/>
</g>
<!-- D01 -->
<g id="node3" class="node">
<title>D01</title>
<path fill="#2980b9" stroke="white" d="M149.5,-1543C149.5,-1543 20.5,-1543 20.5,-1543 14.5,-1543 8.5,-1537 8.5,-1531 8.5,-1531 8.5,-1519 8.5,-1519 8.5,-1513 14.5,-1507 20.5,-1507 20.5,-1507 149.5,-1507 149.5,-1507 155.5,-1507 161.5,-1513 161.5,-1519 161.5,-1519 161.5,-1531 161.5,-1531 161.5,-1537 155.5,-1543 149.5,-1543"/>
<text text-anchor="middle" x="85" y="-1522.5" font-family="sans" font-size="10.00" fill="white">detect_device &#45; getprop x15</text>
</g>
<!-- WATCHDOG&#45;&gt;D01 -->
<g id="edge2" class="edge">
<title>WATCHDOG&#45;&gt;D01</title>
<path fill="none" stroke="#888899" d="M85,-1571.8C85,-1566.1 85,-1559.6 85,-1553.3"/>
<polygon fill="#888899" stroke="#888899" points="88.5,-1553.2 85,-1543.2 81.5,-1553.2 88.5,-1553.2"/>
</g>
<!-- D02 -->
<g id="node4" class="node">
<title>D02</title>
<path fill="#2980b9" stroke="white" d="M153.5,-1478C153.5,-1478 16.5,-1478 16.5,-1478 10.5,-1478 4.5,-1472 4.5,-1466 4.5,-1466 4.5,-1454 4.5,-1454 4.5,-1448 10.5,-1442 16.5,-1442 16.5,-1442 153.5,-1442 153.5,-1442 159.5,-1442 165.5,-1448 165.5,-1454 165.5,-1454 165.5,-1466 165.5,-1466 165.5,-1472 159.5,-1478 153.5,-1478"/>
<text text-anchor="middle" x="85" y="-1457.5" font-family="sans" font-size="10.00" fill="white">detect_network &#45; WiFi/IP/MAC</text>
</g>
<!-- D01&#45;&gt;D02 -->
<g id="edge3" class="edge">
<title>D01&#45;&gt;D02</title>
<path fill="none" stroke="#888899" d="M85,-1506.8C85,-1501.1 85,-1494.6 85,-1488.3"/>
<polygon fill="#888899" stroke="#888899" points="88.5,-1488.2 85,-1478.2 81.5,-1488.2 88.5,-1488.2"/>
</g>
<!-- D03 -->
<g id="node5" class="node">
<title>D03</title>
<path fill="#2980b9" stroke="white" d="M140,-1413C140,-1413 30,-1413 30,-1413 24,-1413 18,-1407 18,-1401 18,-1401 18,-1389 18,-1389 18,-1383 24,-1377 30,-1377 30,-1377 140,-1377 140,-1377 146,-1377 152,-1383 152,-1389 152,-1389 152,-1401 152,-1401 152,-1407 146,-1413 140,-1413"/>
<text text-anchor="middle" x="85" y="-1392.5" font-family="sans" font-size="10.00" fill="white">detect_sysfs &#45; /proc /sys</text>
</g>
<!-- D02&#45;&gt;D03 -->
<g id="edge4" class="edge">
<title>D02&#45;&gt;D03</title>
<path fill="none" stroke="#888899" d="M85,-1441.8C85,-1436.1 85,-1429.6 85,-1423.3"/>
<polygon fill="#888899" stroke="#888899" points="88.5,-1423.2 85,-1413.2 81.5,-1423.2 88.5,-1423.2"/>
</g>
<!-- D04 -->
<g id="node6" class="node">
<title>D04</title>
<path fill="#2980b9" stroke="white" d="M156.5,-1348C156.5,-1348 13.5,-1348 13.5,-1348 7.5,-1348 1.5,-1342 1.5,-1336 1.5,-1336 1.5,-1324 1.5,-1324 1.5,-1318 7.5,-1312 13.5,-1312 13.5,-1312 156.5,-1312 156.5,-1312 162.5,-1312 168.5,-1318 168.5,-1324 168.5,-1324 168.5,-1336 168.5,-1336 168.5,-1342 162.5,-1348 156.5,-1348"/>
<text text-anchor="middle" x="85" y="-1327.5" font-family="sans" font-size="10.00" fill="white">detect_database &#45; locksettings</text>
</g>
<!-- D03&#45;&gt;D04 -->
<g id="edge5" class="edge">
<title>D03&#45;&gt;D04</title>
<path fill="none" stroke="#888899" d="M85,-1376.8C85,-1371.1 85,-1364.6 85,-1358.3"/>
<polygon fill="#888899" stroke="#888899" points="88.5,-1358.2 85,-1348.2 81.5,-1358.2 88.5,-1358.2"/>
</g>
<!-- D05 -->
<g id="node7" class="node">
<title>D05</title>
<path fill="#2980b9" stroke="white" d="M143,-1283C143,-1283 27,-1283 27,-1283 21,-1283 15,-1277 15,-1271 15,-1271 15,-1259 15,-1259 15,-1253 21,-1247 27,-1247 27,-1247 143,-1247 143,-1247 149,-1247 155,-1253 155,-1259 155,-1259 155,-1271 155,-1271 155,-1277 149,-1283 143,-1283"/>
<text text-anchor="middle" x="85" y="-1262.5" font-family="sans" font-size="10.00" fill="white">detect_services &#45; running</text>
</g>
<!-- D04&#45;&gt;D05 -->
<g id="edge6" class="edge">
<title>D04&#45;&gt;D05</title>
<path fill="none" stroke="#888899" d="M85,-1311.8C85,-1306.1 85,-1299.6 85,-1293.3"/>
<polygon fill="#888899" stroke="#888899" points="88.5,-1293.2 85,-1283.2 81.5,-1293.2 88.5,-1293.2"/>
</g>
<!-- D06 -->
<g id="node8" class="node">
<title>D06</title>
<path fill="#2980b9" stroke="white" d="M156.5,-1218C156.5,-1218 13.5,-1218 13.5,-1218 7.5,-1218 1.5,-1212 1.5,-1206 1.5,-1206 1.5,-1194 1.5,-1194 1.5,-1188 7.5,-1182 13.5,-1182 13.5,-1182 156.5,-1182 156.5,-1182 162.5,-1182 168.5,-1188 168.5,-1194 168.5,-1194 168.5,-1206 168.5,-1206 168.5,-1212 162.5,-1218 156.5,-1218"/>
<text text-anchor="middle" x="85" y="-1197.5" font-family="sans" font-size="10.00" fill="white">detect_hardware &#45; GPU/display</text>
</g>
<!-- D05&#45;&gt;D06 -->
<g id="edge7" class="edge">
<title>D05&#45;&gt;D06</title>
<path fill="none" stroke="#888899" d="M85,-1246.8C85,-1241.1 85,-1234.6 85,-1228.3"/>
<polygon fill="#888899" stroke="#888899" points="88.5,-1228.2 85,-1218.2 81.5,-1228.2 88.5,-1228.2"/>
</g>
<!-- D07 -->
<g id="node9" class="node">
<title>D07</title>
<path fill="#2980b9" stroke="white" d="M143,-1153C143,-1153 27,-1153 27,-1153 21,-1153 15,-1147 15,-1141 15,-1141 15,-1129 15,-1129 15,-1123 21,-1117 27,-1117 27,-1117 143,-1117 143,-1117 149,-1117 155,-1123 155,-1129 155,-1129 155,-1141 155,-1141 155,-1147 149,-1153 143,-1153"/>
<text text-anchor="middle" x="85" y="-1132.5" font-family="sans" font-size="10.00" fill="white">detect_accounts &#45; Google</text>
</g>
<!-- D06&#45;&gt;D07 -->
<g id="edge8" class="edge">
<title>D06&#45;&gt;D07</title>
<path fill="none" stroke="#888899" d="M85,-1181.8C85,-1176.1 85,-1169.6 85,-1163.3"/>
<polygon fill="#888899" stroke="#888899" points="88.5,-1163.2 85,-1153.2 81.5,-1163.2 88.5,-1163.2"/>
</g>
<!-- D08 -->
<g id="node10" class="node">
<title>D08</title>
<path fill="#2980b9" stroke="white" d="M149.5,-1088C149.5,-1088 20.5,-1088 20.5,-1088 14.5,-1088 8.5,-1082 8.5,-1076 8.5,-1076 8.5,-1064 8.5,-1064 8.5,-1058 14.5,-1052 20.5,-1052 20.5,-1052 149.5,-1052 149.5,-1052 155.5,-1052 161.5,-1058 161.5,-1064 161.5,-1064 161.5,-1076 161.5,-1076 161.5,-1082 155.5,-1088 149.5,-1088"/>
<text text-anchor="middle" x="85" y="-1067.5" font-family="sans" font-size="10.00" fill="white">detect_telephony &#45; IMEI/SIM</text>
</g>
<!-- D07&#45;&gt;D08 -->
<g id="edge9" class="edge">
<title>D07&#45;&gt;D08</title>
<path fill="none" stroke="#888899" d="M85,-1116.8C85,-1111.1 85,-1104.6 85,-1098.3"/>
<polygon fill="#888899" stroke="#888899" points="88.5,-1098.2 85,-1088.2 81.5,-1098.2 88.5,-1098.2"/>
</g>
<!-- D09 -->
<g id="node11" class="node">
<title>D09</title>
<path fill="#8e44ad" stroke="white" d="M144,-1023C144,-1023 26,-1023 26,-1023 20,-1023 14,-1017 14,-1011 14,-1011 14,-999 14,-999 14,-993 20,-987 26,-987 26,-987 144,-987 144,-987 150,-987 156,-993 156,-999 156,-999 156,-1011 156,-1011 156,-1017 150,-1023 144,-1023"/>
<text text-anchor="middle" x="85" y="-1002.5" font-family="sans" font-size="10.00" fill="white">detect_extra &#45; boot/config</text>
</g>
<!-- D08&#45;&gt;D09 -->
<g id="edge10" class="edge">
<title>D08&#45;&gt;D09</title>
<path fill="none" stroke="#888899" d="M85,-1051.8C85,-1046.1 85,-1039.6 85,-1033.3"/>
<polygon fill="#888899" stroke="#888899" points="88.5,-1033.2 85,-1023.2 81.5,-1033.2 88.5,-1033.2"/>
</g>
<!-- D10 -->
<g id="node12" class="node">
<title>D10</title>
<path fill="#8e44ad" stroke="white" d="M150,-958C150,-958 20,-958 20,-958 14,-958 8,-952 8,-946 8,-946 8,-934 8,-934 8,-928 14,-922 20,-922 20,-922 150,-922 150,-922 156,-922 162,-928 162,-934 162,-934 162,-946 162,-946 162,-952 156,-958 150,-958"/>
<text text-anchor="middle" x="85" y="-937.5" font-family="sans" font-size="10.00" fill="white">detect_devices &#45; input/block</text>
</g>
<!-- D09&#45;&gt;D10 -->
<g id="edge11" class="edge">
<title>D09&#45;&gt;D10</title>
<path fill="none" stroke="#888899" d="M85,-986.78C85,-981.09 85,-974.61 85,-968.34"/>
<polygon fill="#888899" stroke="#888899" points="88.5,-968.19 85,-958.19 81.5,-968.19 88.5,-968.19"/>
</g>
<!-- D11 -->
<g id="node13" class="node">
<title>D11</title>
<path fill="#8e44ad" stroke="white" d="M154,-893C154,-893 16,-893 16,-893 10,-893 4,-887 4,-881 4,-881 4,-869 4,-869 4,-863 10,-857 16,-857 16,-857 154,-857 154,-857 160,-857 166,-863 166,-869 166,-869 166,-881 166,-881 166,-887 160,-893 154,-893"/>
<text text-anchor="middle" x="85" y="-872.5" font-family="sans" font-size="10.00" fill="white">detect_debug &#45; verity/thermal</text>
</g>
<!-- D10&#45;&gt;D11 -->
<g id="edge12" class="edge">
<title>D10&#45;&gt;D11</title>
<path fill="none" stroke="#888899" d="M85,-921.78C85,-916.09 85,-909.61 85,-903.34"/>
<polygon fill="#888899" stroke="#888899" points="88.5,-903.19 85,-893.19 81.5,-903.19 88.5,-903.19"/>
</g>
<!-- D12 -->
<g id="node14" class="node">
<title>D12</title>
<path fill="#8e44ad" stroke="white" d="M158,-828C158,-828 12,-828 12,-828 6,-828 0,-822 0,-816 0,-816 0,-804 0,-804 0,-798 6,-792 12,-792 12,-792 158,-792 158,-792 164,-792 170,-798 170,-804 170,-804 170,-816 170,-816 170,-822 164,-828 158,-828"/>
<text text-anchor="middle" x="85" y="-807.5" font-family="sans" font-size="10.00" fill="white">detect_bypass &#45; bypass vectors</text>
</g>
<!-- D11&#45;&gt;D12 -->
<g id="edge13" class="edge">
<title>D11&#45;&gt;D12</title>
<path fill="none" stroke="#888899" d="M85,-856.78C85,-851.09 85,-844.61 85,-838.34"/>
<polygon fill="#888899" stroke="#888899" points="88.5,-838.19 85,-828.19 81.5,-838.19 88.5,-838.19"/>
</g>
<!-- D13 -->
<g id="node15" class="node">
<title>D13</title>
<path fill="#16a085" stroke="white" d="M141.5,-763C141.5,-763 28.5,-763 28.5,-763 22.5,-763 16.5,-757 16.5,-751 16.5,-751 16.5,-739 16.5,-739 16.5,-733 22.5,-727 28.5,-727 28.5,-727 141.5,-727 141.5,-727 147.5,-727 153.5,-733 153.5,-739 153.5,-739 153.5,-751 153.5,-751 153.5,-757 147.5,-763 141.5,-763"/>
<text text-anchor="middle" x="85" y="-742.5" font-family="sans" font-size="10.00" fill="white">detect_chip &#45; SoC details</text>
</g>
<!-- D12&#45;&gt;D13 -->
<g id="edge14" class="edge">
<title>D12&#45;&gt;D13</title>
<path fill="none" stroke="#888899" d="M85,-791.78C85,-786.09 85,-779.61 85,-773.34"/>
<polygon fill="#888899" stroke="#888899" points="88.5,-773.19 85,-763.19 81.5,-773.19 88.5,-773.19"/>
</g>
<!-- D14 -->
<g id="node16" class="node">
<title>D14</title>
<path fill="#16a085" stroke="white" d="M150.5,-698C150.5,-698 19.5,-698 19.5,-698 13.5,-698 7.5,-692 7.5,-686 7.5,-686 7.5,-674 7.5,-674 7.5,-668 13.5,-662 19.5,-662 19.5,-662 150.5,-662 150.5,-662 156.5,-662 162.5,-668 162.5,-674 162.5,-674 162.5,-686 162.5,-686 162.5,-692 156.5,-698 150.5,-698"/>
<text text-anchor="middle" x="85" y="-677.5" font-family="sans" font-size="10.00" fill="white">detect_panel &#45; display panel</text>
</g>
<!-- D13&#45;&gt;D14 -->
<g id="edge15" class="edge">
<title>D13&#45;&gt;D14</title>
<path fill="none" stroke="#888899" d="M85,-726.78C85,-721.09 85,-714.61 85,-708.34"/>
<polygon fill="#888899" stroke="#888899" points="88.5,-708.19 85,-698.19 81.5,-708.19 88.5,-708.19"/>
</g>
<!-- D15 -->
<g id="node17" class="node">
<title>D15</title>
<path fill="#16a085" stroke="white" d="M152.5,-633C152.5,-633 17.5,-633 17.5,-633 11.5,-633 5.5,-627 5.5,-621 5.5,-621 5.5,-609 5.5,-609 5.5,-603 11.5,-597 17.5,-597 17.5,-597 152.5,-597 152.5,-597 158.5,-597 164.5,-603 164.5,-609 164.5,-609 164.5,-621 164.5,-621 164.5,-627 158.5,-633 152.5,-633"/>
<text text-anchor="middle" x="85" y="-612.5" font-family="sans" font-size="10.00" fill="white">detect_cam &#45; camera system</text>
</g>
<!-- D14&#45;&gt;D15 -->
<g id="edge16" class="edge">
<title>D14&#45;&gt;D15</title>
<path fill="none" stroke="#888899" d="M85,-661.78C85,-656.09 85,-649.61 85,-643.34"/>
<polygon fill="#888899" stroke="#888899" points="88.5,-643.19 85,-633.19 81.5,-643.19 88.5,-643.19"/>
</g>
<!-- D16 -->
<g id="node18" class="node">
<title>D16</title>
<path fill="#16a085" stroke="white" d="M146,-568C146,-568 24,-568 24,-568 18,-568 12,-562 12,-556 12,-556 12,-544 12,-544 12,-538 18,-532 24,-532 24,-532 146,-532 146,-532 152,-532 158,-538 158,-544 158,-544 158,-556 158,-556 158,-562 152,-568 146,-568"/>
<text text-anchor="middle" x="85" y="-547.5" font-family="sans" font-size="10.00" fill="white">detect_snd &#45; audio system</text>
</g>
<!-- D15&#45;&gt;D16 -->
<g id="edge17" class="edge">
<title>D15&#45;&gt;D16</title>
<path fill="none" stroke="#888899" d="M85,-596.78C85,-591.09 85,-584.61 85,-578.34"/>
<polygon fill="#888899" stroke="#888899" points="88.5,-578.19 85,-568.19 81.5,-578.19 88.5,-578.19"/>
</g>
<!-- D17 -->
<g id="node19" class="node">
<title>D17</title>
<path fill="#16a085" stroke="white" d="M144.5,-503C144.5,-503 25.5,-503 25.5,-503 19.5,-503 13.5,-497 13.5,-491 13.5,-491 13.5,-479 13.5,-479 13.5,-473 19.5,-467 25.5,-467 25.5,-467 144.5,-467 144.5,-467 150.5,-467 156.5,-473 156.5,-479 156.5,-479 156.5,-491 156.5,-491 156.5,-497 150.5,-503 144.5,-503"/>
<text text-anchor="middle" x="85" y="-482.5" font-family="sans" font-size="10.00" fill="white">detect_pwr &#45; power mgmt</text>
</g>
<!-- D16&#45;&gt;D17 -->
<g id="edge18" class="edge">
<title>D16&#45;&gt;D17</title>
<path fill="none" stroke="#888899" d="M85,-531.78C85,-526.09 85,-519.61 85,-513.34"/>
<polygon fill="#888899" stroke="#888899" points="88.5,-513.19 85,-503.19 81.5,-513.19 88.5,-513.19"/>
</g>
<!-- D18 -->
<g id="node20" class="node">
<title>D18</title>
<path fill="#16a085" stroke="white" d="M146.5,-438C146.5,-438 23.5,-438 23.5,-438 17.5,-438 11.5,-432 11.5,-426 11.5,-426 11.5,-414 11.5,-414 11.5,-408 17.5,-402 23.5,-402 23.5,-402 146.5,-402 146.5,-402 152.5,-402 158.5,-408 158.5,-414 158.5,-414 158.5,-426 158.5,-426 158.5,-432 152.5,-438 146.5,-438"/>
<text text-anchor="middle" x="85" y="-417.5" font-family="sans" font-size="10.00" fill="white">detect_radio &#45; connectivity</text>
</g>
<!-- D17&#45;&gt;D18 -->
<g id="edge19" class="edge">
<title>D17&#45;&gt;D18</title>
<path fill="none" stroke="#888899" d="M85,-466.78C85,-461.09 85,-454.61 85,-448.34"/>
<polygon fill="#888899" stroke="#888899" points="88.5,-448.19 85,-438.19 81.5,-448.19 88.5,-448.19"/>
</g>
<!-- D19 -->
<g id="node21" class="node">
<title>D19</title>
<path fill="#16a085" stroke="white" d="M153.5,-373C153.5,-373 16.5,-373 16.5,-373 10.5,-373 4.5,-367 4.5,-361 4.5,-361 4.5,-349 4.5,-349 4.5,-343 10.5,-337 16.5,-337 16.5,-337 153.5,-337 153.5,-337 159.5,-337 165.5,-343 165.5,-349 165.5,-349 165.5,-361 165.5,-361 165.5,-367 159.5,-373 153.5,-373"/>
<text text-anchor="middle" x="85" y="-352.5" font-family="sans" font-size="10.00" fill="white">detect_mem &#45; storage + RAM</text>
</g>
<!-- D18&#45;&gt;D19 -->
<g id="edge20" class="edge">
<title>D18&#45;&gt;D19</title>
<path fill="none" stroke="#888899" d="M85,-401.78C85,-396.09 85,-389.61 85,-383.34"/>
<polygon fill="#888899" stroke="#888899" points="88.5,-383.19 85,-373.19 81.5,-383.19 88.5,-383.19"/>
</g>
<!-- D20 -->
<g id="node22" class="node">
<title>D20</title>
<path fill="#16a085" stroke="white" d="M132,-308C132,-308 38,-308 38,-308 32,-308 26,-302 26,-296 26,-296 26,-284 26,-284 26,-278 32,-272 38,-272 38,-272 132,-272 132,-272 138,-272 144,-278 144,-284 144,-284 144,-296 144,-296 144,-302 138,-308 132,-308"/>
<text text-anchor="middle" x="85" y="-287.5" font-family="sans" font-size="10.00" fill="white">detect_sec &#45; security</text>
</g>
<!-- D19&#45;&gt;D20 -->
<g id="edge21" class="edge">
<title>D19&#45;&gt;D20</title>
<path fill="none" stroke="#888899" d="M85,-336.78C85,-331.09 85,-324.61 85,-318.34"/>
<polygon fill="#888899" stroke="#888899" points="88.5,-318.19 85,-308.19 81.5,-318.19 88.5,-318.19"/>
</g>
<!-- D21 -->
<g id="node23" class="node">
<title>D21</title>
<path fill="#16a085" stroke="white" d="M134,-243C134,-243 36,-243 36,-243 30,-243 24,-237 24,-231 24,-231 24,-219 24,-219 24,-213 30,-207 36,-207 36,-207 134,-207 134,-207 140,-207 146,-213 146,-219 146,-219 146,-231 146,-231 146,-237 140,-243 134,-243"/>
<text text-anchor="middle" x="85" y="-222.5" font-family="sans" font-size="10.00" fill="white">detect_sens &#45; sensors</text>
</g>
<!-- D20&#45;&gt;D21 -->
<g id="edge22" class="edge">
<title>D20&#45;&gt;D21</title>
<path fill="none" stroke="#888899" d="M85,-271.78C85,-266.09 85,-259.61 85,-253.34"/>
<polygon fill="#888899" stroke="#888899" points="88.5,-253.19 85,-243.19 81.5,-253.19 88.5,-253.19"/>
</g>
<!-- D22 -->
<g id="node24" class="node">
<title>D22</title>
<path fill="#16a085" stroke="white" d="M145.5,-178C145.5,-178 24.5,-178 24.5,-178 18.5,-178 12.5,-172 12.5,-166 12.5,-166 12.5,-154 12.5,-154 12.5,-148 18.5,-142 24.5,-142 24.5,-142 145.5,-142 145.5,-142 151.5,-142 157.5,-148 157.5,-154 157.5,-154 157.5,-166 157.5,-166 157.5,-172 151.5,-178 145.5,-178"/>
<text text-anchor="middle" x="85" y="-157.5" font-family="sans" font-size="10.00" fill="white">detect_filesys &#45; filesystem</text>
</g>
<!-- D21&#45;&gt;D22 -->
<g id="edge23" class="edge">
<title>D21&#45;&gt;D22</title>
<path fill="none" stroke="#888899" d="M85,-206.78C85,-201.09 85,-194.61 85,-188.34"/>
<polygon fill="#888899" stroke="#888899" points="88.5,-188.19 85,-178.19 81.5,-188.19 88.5,-188.19"/>
</g>
<!-- D23 -->
<g id="node25" class="node">
<title>D23</title>
<path fill="#16a085" stroke="white" d="M152,-113C152,-113 18,-113 18,-113 12,-113 6,-107 6,-101 6,-101 6,-89 6,-89 6,-83 12,-77 18,-77 18,-77 152,-77 152,-77 158,-77 164,-83 164,-89 164,-89 164,-101 164,-101 164,-107 158,-113 152,-113"/>
<text text-anchor="middle" x="85" y="-92.5" font-family="sans" font-size="10.00" fill="white">detect_allprop &#45; bulk getprop</text>
</g>
<!-- D22&#45;&gt;D23 -->
<g id="edge24" class="edge">
<title>D22&#45;&gt;D23</title>
<path fill="none" stroke="#888899" d="M85,-141.78C85,-136.09 85,-129.61 85,-123.34"/>
<polygon fill="#888899" stroke="#888899" points="88.5,-123.19 85,-113.19 81.5,-123.19 88.5,-123.19"/>
</g>
<!-- DONE -->
<g id="node26" class="node">
<title>DONE</title>
<path fill="#27ae60" stroke="white" d="M123,-48C123,-48 47,-48 47,-48 41,-48 35,-42 35,-36 35,-36 35,-16 35,-16 35,-10 41,-4 47,-4 47,-4 123,-4 123,-4 129,-4 135,-10 135,-16 135,-16 135,-36 135,-36 135,-42 129,-48 123,-48"/>
<path fill="none" stroke="white" d="M127,-52C127,-52 43,-52 43,-52 37,-52 31,-46 31,-40 31,-40 31,-12 31,-12 31,-6 37,0 43,0 43,0 127,0 127,0 133,0 139,-6 139,-12 139,-12 139,-40 139,-40 139,-46 133,-52 127,-52"/>
<text text-anchor="middle" x="85" y="-23.5" font-family="sans" font-size="10.00" fill="white">Return to caller</text>
</g>
<!-- D23&#45;&gt;DONE -->
<g id="edge25" class="edge">
<title>D23&#45;&gt;DONE</title>
<path fill="none" stroke="#888899" d="M85,-76.75C85,-71.18 85,-64.83 85,-58.57"/>
<polygon fill="#888899" stroke="#888899" points="88.5,-58.27 85,-48.27 81.5,-58.27 88.5,-58.27"/>
</g>
</g>
</svg>
