<?xml version="1.0" encoding="UTF-8" standalone="no"?>
<!DOCTYPE svg PUBLIC "-//W3C//DTD SVG 1.1//EN"
 "http://www.w3.org/Graphics/SVG/1.1/DTD/svg11.dtd">
<!-- Generated by graphviz version 2.42.4 (0)
 -->
<!-- Pages: 1 -->
<svg width="548pt" height="1519pt"
 viewBox="0.00 0.00 548.19 1519.00" xmlns="http://www.w3.org/2000/svg" xmlns:xlink="http://www.w3.org/1999/xlink">
<g id="graph0" class="graph" transform="scale(1 1) rotate(0) translate(4 1515)">
<polygon fill="#1a1a2e" stroke="transparent" points="-4,4 -4,-1515 544.19,-1515 544.19,4 -4,4"/>
<!-- START -->
<g id="node1" class="node">
<title>START</title>
<path fill="#27ae60" stroke="white" d="M190.19,-1511C190.19,-1511 160.19,-1511 160.19,-1511 154.19,-1511 148.19,-1505 148.19,-1499 148.19,-1499 148.19,-1487 148.19,-1487 148.19,-1481 154.19,-1475 160.19,-1475 160.19,-1475 190.19,-1475 190.19,-1475 196.19,-1475 202.19,-1481 202.19,-1487 202.19,-1487 202.19,-1499 202.19,-1499 202.19,-1505 196.19,-1511 190.19,-1511"/>
<text text-anchor="middle" x="175.19" y="-1490.2" font-family="sans" font-size="11.00" fill="white">START</text>
</g>
<!-- PARSE -->
<g id="node2" class="node">
<title>PARSE</title>
<path fill="#2980b9" stroke="white" d="M218.19,-1444C218.19,-1444 132.19,-1444 132.19,-1444 126.19,-1444 120.19,-1438 120.19,-1432 120.19,-1432 120.19,-1420 120.19,-1420 120.19,-1414 126.19,-1408 132.19,-1408 132.19,-1408 218.19,-1408 218.19,-1408 224.19,-1408 230.19,-1414 230.19,-1420 230.19,-1420 230.19,-1432 230.19,-1432 230.19,-1438 224.19,-1444 218.19,-1444"/>
<text text-anchor="middle" x="175.19" y="-1423.2" font-family="sans" font-size="11.00" fill="white">Parse arguments</text>
</g>
<!-- START&#45;&gt;PARSE -->
<g id="edge1" class="edge">
<title>START&#45;&gt;PARSE</title>
<path fill="none" stroke="#888899" d="M175.19,-1474.9C175.19,-1468.7 175.19,-1461.5 175.19,-1454.6"/>
<polygon fill="#888899" stroke="#888899" points="178.69,-1454.2 175.19,-1444.2 171.69,-1454.2 178.69,-1454.2"/>
</g>
<!-- HASARGS -->
<g id="node3" class="node">
<title>HASARGS</title>
<path fill="#f1c40f" stroke="white" d="M163.69,-1373.58C163.69,-1373.58 126.19,-1362.42 126.19,-1362.42 120.44,-1360.71 120.44,-1357.29 126.19,-1355.58 126.19,-1355.58 163.69,-1344.42 163.69,-1344.42 169.44,-1342.71 180.94,-1342.71 186.69,-1344.42 186.69,-1344.42 224.19,-1355.58 224.19,-1355.58 229.94,-1357.29 229.94,-1360.71 224.19,-1362.42 224.19,-1362.42 186.69,-1373.58 186.69,-1373.58 180.94,-1375.29 169.44,-1375.29 163.69,-1373.58"/>
<text text-anchor="middle" x="175.19" y="-1356.2" font-family="sans" font-size="11.00">Has args?</text>
</g>
<!-- PARSE&#45;&gt;HASARGS -->
<g id="edge2" class="edge">
<title>PARSE&#45;&gt;HASARGS</title>
<path fill="none" stroke="#888899" d="M175.19,-1407.9C175.19,-1401.7 175.19,-1394.5 175.19,-1387.6"/>
<polygon fill="#888899" stroke="#888899" points="178.69,-1387.2 175.19,-1377.2 171.69,-1387.2 178.69,-1387.2"/>
</g>
<!-- USBSCAN -->
<g id="node4" class="node">
<title>USBSCAN</title>
<path fill="#16a085" stroke="white" d="M153.19,-1300C153.19,-1300 85.19,-1300 85.19,-1300 79.19,-1300 73.19,-1294 73.19,-1288 73.19,-1288 73.19,-1276 73.19,-1276 73.19,-1270 79.19,-1264 85.19,-1264 85.19,-1264 153.19,-1264 153.19,-1264 159.19,-1264 165.19,-1270 165.19,-1276 165.19,-1276 165.19,-1288 165.19,-1288 165.19,-1294 159.19,-1300 153.19,-1300"/>
<text text-anchor="middle" x="119.19" y="-1279.2" font-family="sans" font-size="11.00" fill="white">USB raw scan</text>
</g>
<!-- HASARGS&#45;&gt;USBSCAN -->
<g id="edge3" class="edge">
<title>HASARGS&#45;&gt;USBSCAN</title>
<path fill="none" stroke="#888899" d="M164.66,-1343.9C157.21,-1333.9 147.03,-1320.3 138.18,-1308.4"/>
<polygon fill="#888899" stroke="#888899" points="140.84,-1306.11 132.04,-1300.2 135.23,-1310.3 140.84,-1306.11"/>
<text text-anchor="middle" x="158.19" y="-1318" font-family="sans" font-size="10.00" fill="white">No</text>
</g>
<!-- PROCESS -->
<g id="node5" class="node">
<title>PROCESS</title>
<path fill="#2980b9" stroke="white" d="M278.69,-1300C278.69,-1300 213.69,-1300 213.69,-1300 207.69,-1300 201.69,-1294 201.69,-1288 201.69,-1288 201.69,-1276 201.69,-1276 201.69,-1270 207.69,-1264 213.69,-1264 213.69,-1264 278.69,-1264 278.69,-1264 284.69,-1264 290.69,-1270 290.69,-1276 290.69,-1276 290.69,-1288 290.69,-1288 290.69,-1294 284.69,-1300 278.69,-1300"/>
<text text-anchor="middle" x="246.19" y="-1279.2" font-family="sans" font-size="11.00" fill="white">Process flags</text>
</g>
<!-- HASARGS&#45;&gt;PROCESS -->
<g id="edge4" class="edge">
<title>HASARGS&#45;&gt;PROCESS</title>
<path fill="none" stroke="#888899" d="M187.88,-1344.6C197.6,-1334.3 211.26,-1319.9 222.91,-1307.6"/>
<polygon fill="#888899" stroke="#888899" points="225.5,-1309.96 229.86,-1300.3 220.43,-1305.13 225.5,-1309.96"/>
<text text-anchor="middle" x="223.19" y="-1318" font-family="sans" font-size="10.00" fill="white">Yes</text>
</g>
<!-- FOUND -->
<g id="node6" class="node">
<title>FOUND</title>
<path fill="#f1c40f" stroke="white" d="M72.46,-1230.5C72.46,-1230.5 11.54,-1217.5 11.54,-1217.5 5.68,-1216.25 5.68,-1213.75 11.54,-1212.5 11.54,-1212.5 72.46,-1199.5 72.46,-1199.5 78.32,-1198.25 90.06,-1198.25 95.93,-1199.5 95.93,-1199.5 156.84,-1212.5 156.84,-1212.5 162.71,-1213.75 162.71,-1216.25 156.84,-1217.5 156.84,-1217.5 95.93,-1230.5 95.93,-1230.5 90.06,-1231.75 78.32,-1231.75 72.46,-1230.5"/>
<text text-anchor="middle" x="84.19" y="-1212.2" font-family="sans" font-size="11.00">Android found?</text>
</g>
<!-- USBSCAN&#45;&gt;FOUND -->
<g id="edge5" class="edge">
<title>USBSCAN&#45;&gt;FOUND</title>
<path fill="none" stroke="#888899" d="M110,-1263.9C106.09,-1256.7 101.48,-1248.1 97.23,-1240.2"/>
<polygon fill="#888899" stroke="#888899" points="100.31,-1238.54 92.49,-1231.4 94.15,-1241.86 100.31,-1238.54"/>
</g>
<!-- DISPATCH -->
<g id="node7" class="node">
<title>DISPATCH</title>
<path fill="#16a085" stroke="white" d="M303.69,-1233C303.69,-1233 202.69,-1233 202.69,-1233 196.69,-1233 190.69,-1227 190.69,-1221 190.69,-1221 190.69,-1209 190.69,-1209 190.69,-1203 196.69,-1197 202.69,-1197 202.69,-1197 303.69,-1197 303.69,-1197 309.69,-1197 315.69,-1203 315.69,-1209 315.69,-1209 315.69,-1221 315.69,-1221 315.69,-1227 309.69,-1233 303.69,-1233"/>
<text text-anchor="middle" x="253.19" y="-1212.2" font-family="sans" font-size="11.00" fill="white">Dispatch to handler</text>
</g>
<!-- PROCESS&#45;&gt;DISPATCH -->
<g id="edge6" class="edge">
<title>PROCESS&#45;&gt;DISPATCH</title>
<path fill="none" stroke="#888899" d="M248.03,-1263.9C248.7,-1257.7 249.48,-1250.5 250.22,-1243.6"/>
<polygon fill="#888899" stroke="#888899" points="253.75,-1243.52 251.34,-1233.2 246.79,-1242.77 253.75,-1243.52"/>
</g>
<!-- SHOWERR -->
<g id="node8" class="node">
<title>SHOWERR</title>
<path fill="#e74c3c" stroke="white" d="M112.19,-1156C112.19,-1156 16.19,-1156 16.19,-1156 10.19,-1156 4.19,-1150 4.19,-1144 4.19,-1144 4.19,-1132 4.19,-1132 4.19,-1126 10.19,-1120 16.19,-1120 16.19,-1120 112.19,-1120 112.19,-1120 118.19,-1120 124.19,-1126 124.19,-1132 124.19,-1132 124.19,-1144 124.19,-1144 124.19,-1150 118.19,-1156 112.19,-1156"/>
<text text-anchor="middle" x="64.19" y="-1135.2" font-family="sans" font-size="11.00" fill="white">Show error / &#45;&#45;auto</text>
</g>
<!-- FOUND&#45;&gt;SHOWERR -->
<g id="edge7" class="edge">
<title>FOUND&#45;&gt;SHOWERR</title>
<path fill="none" stroke="#888899" d="M79.85,-1197.7C77.36,-1188.4 74.17,-1176.4 71.32,-1165.7"/>
<polygon fill="#888899" stroke="#888899" points="74.7,-1164.76 68.73,-1156 67.93,-1166.56 74.7,-1164.76"/>
<text text-anchor="middle" x="83.19" y="-1174" font-family="sans" font-size="10.00" fill="white">No</text>
</g>
<!-- ADBOK -->
<g id="node9" class="node">
<title>ADBOK</title>
<path fill="#f1c40f" stroke="white" d="M218.45,-1153.5C218.45,-1153.5 157.54,-1140.5 157.54,-1140.5 151.67,-1139.25 151.67,-1136.75 157.54,-1135.5 157.54,-1135.5 218.45,-1122.5 218.45,-1122.5 224.32,-1121.25 236.06,-1121.25 241.93,-1122.5 241.93,-1122.5 302.84,-1135.5 302.84,-1135.5 308.71,-1136.75 308.71,-1139.25 302.84,-1140.5 302.84,-1140.5 241.93,-1153.5 241.93,-1153.5 236.06,-1154.75 224.32,-1154.75 218.45,-1153.5"/>
<text text-anchor="middle" x="230.19" y="-1135.2" font-family="sans" font-size="11.00">ADB available?</text>
</g>
<!-- FOUND&#45;&gt;ADBOK -->
<g id="edge8" class="edge">
<title>FOUND&#45;&gt;ADBOK</title>
<path fill="none" stroke="#888899" d="M107.65,-1201.9C132.02,-1189.4 170.34,-1169.7 197.64,-1155.7"/>
<polygon fill="#888899" stroke="#888899" points="199.49,-1158.68 206.79,-1151 196.3,-1152.46 199.49,-1158.68"/>
<text text-anchor="middle" x="174.19" y="-1174" font-family="sans" font-size="10.00" fill="white">Yes</text>
</g>
<!-- DEEPNOADB -->
<g id="node10" class="node">
<title>DEEPNOADB</title>
<path fill="#8e44ad" stroke="white" d="M211.69,-1079C211.69,-1079 116.69,-1079 116.69,-1079 110.69,-1079 104.69,-1073 104.69,-1067 104.69,-1067 104.69,-1055 104.69,-1055 104.69,-1049 110.69,-1043 116.69,-1043 116.69,-1043 211.69,-1043 211.69,-1043 217.69,-1043 223.69,-1049 223.69,-1055 223.69,-1055 223.69,-1067 223.69,-1067 223.69,-1073 217.69,-1079 211.69,-1079"/>
<text text-anchor="middle" x="164.19" y="-1058.2" font-family="sans" font-size="11.00" fill="white">deep_scan_no_adb</text>
</g>
<!-- ADBOK&#45;&gt;DEEPNOADB -->
<g id="edge9" class="edge">
<title>ADBOK&#45;&gt;DEEPNOADB</title>
<path fill="none" stroke="#888899" d="M217.47,-1122.5C208.58,-1112.4 196.49,-1098.7 186.07,-1086.9"/>
<polygon fill="#888899" stroke="#888899" points="188.4,-1084.24 179.19,-1079 183.12,-1088.84 188.4,-1084.24"/>
<text text-anchor="middle" x="208.19" y="-1097" font-family="sans" font-size="10.00" fill="white">No</text>
</g>
<!-- SAFEDETECT -->
<g id="node11" class="node">
<title>SAFEDETECT</title>
<path fill="#27ae60" stroke="white" d="M298.19,-555C298.19,-555 224.19,-555 224.19,-555 218.19,-555 212.19,-549 212.19,-543 212.19,-543 212.19,-531 212.19,-531 212.19,-525 218.19,-519 224.19,-519 224.19,-519 298.19,-519 298.19,-519 304.19,-519 310.19,-525 310.19,-531 310.19,-531 310.19,-543 310.19,-543 310.19,-549 304.19,-555 298.19,-555"/>
<text text-anchor="middle" x="261.19" y="-534.2" font-family="sans" font-size="11.00" fill="white">safe_detect_all</text>
</g>
<!-- ADBOK&#45;&gt;SAFEDETECT -->
<g id="edge10" class="edge">
<title>ADBOK&#45;&gt;SAFEDETECT</title>
<path fill="none" stroke="#888899" d="M240.51,-1122C249.53,-1107.3 261.19,-1084.1 261.19,-1062 261.19,-1062 261.19,-1062 261.19,-613 261.19,-597.23 261.19,-579.59 261.19,-565.38"/>
<polygon fill="#888899" stroke="#888899" points="264.69,-565.28 261.19,-555.28 257.69,-565.28 264.69,-565.28"/>
<text text-anchor="middle" x="269.19" y="-847.5" font-family="sans" font-size="10.00" fill="white">Yes</text>
</g>
<!-- USBINFO -->
<g id="node12" class="node">
<title>USBINFO</title>
<path fill="#2980b9" stroke="white" d="M211.69,-1012C211.69,-1012 88.69,-1012 88.69,-1012 82.69,-1012 76.69,-1006 76.69,-1000 76.69,-1000 76.69,-988 76.69,-988 76.69,-982 82.69,-976 88.69,-976 88.69,-976 211.69,-976 211.69,-976 217.69,-976 223.69,-982 223.69,-988 223.69,-988 223.69,-1000 223.69,-1000 223.69,-1006 217.69,-1012 211.69,-1012"/>
<text text-anchor="middle" x="150.19" y="-991.2" font-family="sans" font-size="11.00" fill="white">Show USB/Fastboot info</text>
</g>
<!-- DEEPNOADB&#45;&gt;USBINFO -->
<g id="edge11" class="edge">
<title>DEEPNOADB&#45;&gt;USBINFO</title>
<path fill="none" stroke="#888899" d="M160.51,-1042.9C159.14,-1036.6 157.55,-1029.2 156.03,-1022.1"/>
<polygon fill="#888899" stroke="#888899" points="159.42,-1021.23 153.89,-1012.2 152.58,-1022.71 159.42,-1021.23"/>
</g>
<!-- PRINTINFO -->
<g id="node13" class="node">
<title>PRINTINFO</title>
<path fill="#2980b9" stroke="white" d="M293.69,-488C293.69,-488 228.69,-488 228.69,-488 222.69,-488 216.69,-482 216.69,-476 216.69,-476 216.69,-464 216.69,-464 216.69,-458 222.69,-452 228.69,-452 228.69,-452 293.69,-452 293.69,-452 299.69,-452 305.69,-458 305.69,-464 305.69,-464 305.69,-476 305.69,-476 305.69,-482 299.69,-488 293.69,-488"/>
<text text-anchor="middle" x="261.19" y="-467.2" font-family="sans" font-size="11.00" fill="white">print_full_info</text>
</g>
<!-- SAFEDETECT&#45;&gt;PRINTINFO -->
<g id="edge12" class="edge">
<title>SAFEDETECT&#45;&gt;PRINTINFO</title>
<path fill="none" stroke="#888899" d="M261.19,-518.92C261.19,-512.7 261.19,-505.5 261.19,-498.6"/>
<polygon fill="#888899" stroke="#888899" points="264.69,-498.19 261.19,-488.19 257.69,-498.19 264.69,-498.19"/>
</g>
<!-- FBMODE -->
<g id="node14" class="node">
<title>FBMODE</title>
<path fill="#f1c40f" stroke="white" d="M127.43,-942.59C127.43,-942.59 63.26,-929.41 63.26,-929.41 57.38,-928.21 57.38,-925.79 63.26,-924.59 63.26,-924.59 127.43,-911.41 127.43,-911.41 133.31,-910.21 145.07,-910.21 150.94,-911.41 150.94,-911.41 215.12,-924.59 215.12,-924.59 221,-925.79 221,-928.21 215.12,-929.41 215.12,-929.41 150.94,-942.59 150.94,-942.59 145.07,-943.79 133.31,-943.79 127.43,-942.59"/>
<text text-anchor="middle" x="139.19" y="-924.2" font-family="sans" font-size="11.00">fastboot mode?</text>
</g>
<!-- USBINFO&#45;&gt;FBMODE -->
<g id="edge13" class="edge">
<title>USBINFO&#45;&gt;FBMODE</title>
<path fill="none" stroke="#888899" d="M147.3,-975.92C146.21,-969.45 144.93,-961.92 143.72,-954.77"/>
<polygon fill="#888899" stroke="#888899" points="147.14,-954.01 142.02,-944.74 140.24,-955.18 147.14,-954.01"/>
</g>
<!-- LOCKED -->
<g id="node15" class="node">
<title>LOCKED</title>
<path fill="#f1c40f" stroke="white" d="M249.45,-418.5C249.45,-418.5 188.54,-405.5 188.54,-405.5 182.67,-404.25 182.67,-401.75 188.54,-400.5 188.54,-400.5 249.45,-387.5 249.45,-387.5 255.32,-386.25 267.06,-386.25 272.93,-387.5 272.93,-387.5 333.84,-400.5 333.84,-400.5 339.71,-401.75 339.71,-404.25 333.84,-405.5 333.84,-405.5 272.93,-418.5 272.93,-418.5 267.06,-419.75 255.32,-419.75 249.45,-418.5"/>
<text text-anchor="middle" x="261.19" y="-400.2" font-family="sans" font-size="11.00">Device locked?</text>
</g>
<!-- PRINTINFO&#45;&gt;LOCKED -->
<g id="edge14" class="edge">
<title>PRINTINFO&#45;&gt;LOCKED</title>
<path fill="none" stroke="#888899" d="M261.19,-451.92C261.19,-445.7 261.19,-438.5 261.19,-431.6"/>
<polygon fill="#888899" stroke="#888899" points="264.69,-431.19 261.19,-421.19 257.69,-431.19 264.69,-431.19"/>
</g>
<!-- GETVARS -->
<g id="node16" class="node">
<title>GETVARS</title>
<path fill="#16a085" stroke="white" d="M177.19,-868C177.19,-868 115.19,-868 115.19,-868 109.19,-868 103.19,-862 103.19,-856 103.19,-856 103.19,-844 103.19,-844 103.19,-838 109.19,-832 115.19,-832 115.19,-832 177.19,-832 177.19,-832 183.19,-832 189.19,-838 189.19,-844 189.19,-844 189.19,-856 189.19,-856 189.19,-862 183.19,-868 177.19,-868"/>
<text text-anchor="middle" x="146.19" y="-847.2" font-family="sans" font-size="11.00" fill="white">fb_getvar_all</text>
</g>
<!-- FBMODE&#45;&gt;GETVARS -->
<g id="edge15" class="edge">
<title>FBMODE&#45;&gt;GETVARS</title>
<path fill="none" stroke="#888899" d="M140.78,-908.98C141.62,-899.94 142.68,-888.6 143.64,-878.35"/>
<polygon fill="#888899" stroke="#888899" points="147.14,-878.49 144.59,-868.21 140.17,-877.84 147.14,-878.49"/>
<text text-anchor="middle" x="151.19" y="-886" font-family="sans" font-size="10.00" fill="white">Yes</text>
</g>
<!-- MODESWITCH -->
<g id="node17" class="node">
<title>MODESWITCH</title>
<path fill="#8e44ad" stroke="white" d="M101.69,-817C101.69,-817 12.69,-817 12.69,-817 6.69,-817 0.69,-811 0.69,-805 0.69,-805 0.69,-793 0.69,-793 0.69,-787 6.69,-781 12.69,-781 12.69,-781 101.69,-781 101.69,-781 107.69,-781 113.69,-787 113.69,-793 113.69,-793 113.69,-805 113.69,-805 113.69,-811 107.69,-817 101.69,-817"/>
<text text-anchor="middle" x="57.19" y="-796.2" font-family="sans" font-size="11.00" fill="white">USB mode switch</text>
</g>
<!-- FBMODE&#45;&gt;MODESWITCH -->
<g id="edge16" class="edge">
<title>FBMODE&#45;&gt;MODESWITCH</title>
<path fill="none" stroke="#888899" d="M125.93,-911.38C115.99,-900.03 102.39,-883.63 92.19,-868 83.58,-854.8 75.42,-839.21 69.16,-826.3"/>
<polygon fill="#888899" stroke="#888899" points="72.2,-824.56 64.76,-817.02 65.88,-827.56 72.2,-824.56"/>
<text text-anchor="middle" x="119.19" y="-886" font-family="sans" font-size="10.00" fill="white">No</text>
</g>
<!-- UNLOCKED -->
<g id="node22" class="node">
<title>UNLOCKED</title>
<path fill="#27ae60" stroke="white" d="M282.69,-344C282.69,-344 199.69,-344 199.69,-344 193.69,-344 187.69,-338 187.69,-332 187.69,-332 187.69,-312 187.69,-312 187.69,-306 193.69,-300 199.69,-300 199.69,-300 282.69,-300 282.69,-300 288.69,-300 294.69,-306 294.69,-312 294.69,-312 294.69,-332 294.69,-332 294.69,-338 288.69,-344 282.69,-344"/>
<path fill="none" stroke="white" d="M286.69,-348C286.69,-348 195.69,-348 195.69,-348 189.69,-348 183.69,-342 183.69,-336 183.69,-336 183.69,-308 183.69,-308 183.69,-302 189.69,-296 195.69,-296 195.69,-296 286.69,-296 286.69,-296 292.69,-296 298.69,-302 298.69,-308 298.69,-308 298.69,-336 298.69,-336 298.69,-342 292.69,-348 286.69,-348"/>
<text text-anchor="middle" x="241.19" y="-319.2" font-family="sans" font-size="11.00" fill="white">Unlocked &#45; exit</text>
</g>
<!-- LOCKED&#45;&gt;UNLOCKED -->
<g id="edge23" class="edge">
<title>LOCKED&#45;&gt;UNLOCKED</title>
<path fill="none" stroke="#888899" d="M257.05,-385.63C254.74,-376.52 251.79,-364.88 249.07,-354.1"/>
<polygon fill="#888899" stroke="#888899" points="252.4,-352.99 246.55,-344.16 245.61,-354.71 252.4,-352.99"/>
<text text-anchor="middle" x="260.19" y="-362" font-family="sans" font-size="10.00" fill="white">No</text>
</g>
<!-- MENU -->
<g id="node23" class="node">
<title>MENU</title>
<path fill="#d35400" stroke="white" d="M421.69,-340C421.69,-340 328.69,-340 328.69,-340 322.69,-340 316.69,-334 316.69,-328 316.69,-328 316.69,-316 316.69,-316 316.69,-310 322.69,-304 328.69,-304 328.69,-304 421.69,-304 421.69,-304 427.69,-304 433.69,-310 433.69,-316 433.69,-316 433.69,-328 433.69,-328 433.69,-334 427.69,-340 421.69,-340"/>
<text text-anchor="middle" x="375.19" y="-319.2" font-family="sans" font-size="11.00" fill="white">Choose PIN length</text>
</g>
<!-- LOCKED&#45;&gt;MENU -->
<g id="edge24" class="edge">
<title>LOCKED&#45;&gt;MENU</title>
<path fill="none" stroke="#888899" d="M280.02,-388.95C296.84,-377.3 321.87,-359.95 342.04,-345.97"/>
<polygon fill="#888899" stroke="#888899" points="344.12,-348.78 350.35,-340.21 340.14,-343.03 344.12,-348.78"/>
<text text-anchor="middle" x="330.19" y="-362" font-family="sans" font-size="10.00" fill="white">Yes</text>
</g>
<!-- OEMUNLOCK -->
<g id="node18" class="node">
<title>OEMUNLOCK</title>
<path fill="#d35400" stroke="white" d="M212.69,-766C212.69,-766 99.69,-766 99.69,-766 93.69,-766 87.69,-760 87.69,-754 87.69,-754 87.69,-742 87.69,-742 87.69,-736 93.69,-730 99.69,-730 99.69,-730 212.69,-730 212.69,-730 218.69,-730 224.69,-736 224.69,-742 224.69,-742 224.69,-754 224.69,-754 224.69,-760 218.69,-766 212.69,-766"/>
<text text-anchor="middle" x="156.19" y="-745.2" font-family="sans" font-size="11.00" fill="white">Try brand OEM unlock</text>
</g>
<!-- GETVARS&#45;&gt;OEMUNLOCK -->
<g id="edge17" class="edge">
<title>GETVARS&#45;&gt;OEMUNLOCK</title>
<path fill="none" stroke="#888899" d="M147.93,-831.58C149.45,-816.38 151.68,-794.07 153.45,-776.46"/>
<polygon fill="#888899" stroke="#888899" points="156.96,-776.52 154.47,-766.22 150,-775.82 156.96,-776.52"/>
</g>
<!-- RECHECK -->
<g id="node19" class="node">
<title>RECHECK</title>
<path fill="#f1c40f" stroke="white" d="M124.67,-628.63C124.67,-628.63 86.24,-617.37 86.24,-617.37 80.49,-615.69 80.49,-612.31 86.24,-610.63 86.24,-610.63 124.67,-599.37 124.67,-599.37 130.43,-597.69 141.95,-597.69 147.71,-599.37 147.71,-599.37 186.13,-610.63 186.13,-610.63 191.89,-612.31 191.89,-615.69 186.13,-617.37 186.13,-617.37 147.71,-628.63 147.71,-628.63 141.95,-630.31 130.43,-630.31 124.67,-628.63"/>
<text text-anchor="middle" x="136.19" y="-611.2" font-family="sans" font-size="11.00">ADB now?</text>
</g>
<!-- MODESWITCH&#45;&gt;RECHECK -->
<g id="edge18" class="edge">
<title>MODESWITCH&#45;&gt;RECHECK</title>
<path fill="none" stroke="#888899" d="M57.71,-780.67C59.19,-753.84 64.82,-701.31 86.19,-663 92.36,-651.95 101.9,-641.87 111,-633.84"/>
<polygon fill="#888899" stroke="#888899" points="113.36,-636.43 118.79,-627.33 108.87,-631.06 113.36,-636.43"/>
</g>
<!-- REBOOT -->
<g id="node20" class="node">
<title>REBOOT</title>
<path fill="#c0392b" stroke="white" d="M189.19,-699C189.19,-699 109.19,-699 109.19,-699 103.19,-699 97.19,-693 97.19,-687 97.19,-687 97.19,-675 97.19,-675 97.19,-669 103.19,-663 109.19,-663 109.19,-663 189.19,-663 189.19,-663 195.19,-663 201.19,-669 201.19,-675 201.19,-675 201.19,-687 201.19,-687 201.19,-693 195.19,-699 189.19,-699"/>
<text text-anchor="middle" x="149.19" y="-678.2" font-family="sans" font-size="11.00" fill="white">fastboot_reboot</text>
</g>
<!-- OEMUNLOCK&#45;&gt;REBOOT -->
<g id="edge19" class="edge">
<title>OEMUNLOCK&#45;&gt;REBOOT</title>
<path fill="none" stroke="#888899" d="M154.35,-729.92C153.68,-723.7 152.91,-716.5 152.16,-709.6"/>
<polygon fill="#888899" stroke="#888899" points="155.59,-708.76 151.04,-699.19 148.63,-709.51 155.59,-708.76"/>
</g>
<!-- RECHECK&#45;&gt;SAFEDETECT -->
<g id="edge20" class="edge">
<title>RECHECK&#45;&gt;SAFEDETECT</title>
<path fill="none" stroke="#888899" d="M155.45,-601.45C173.71,-590.49 201.62,-573.74 224.19,-560.2"/>
<polygon fill="#888899" stroke="#888899" points="226.08,-563.15 232.86,-555 222.48,-557.14 226.08,-563.15"/>
<text text-anchor="middle" x="214.19" y="-573" font-family="sans" font-size="10.00" fill="white">Yes</text>
</g>
<!-- OPTIONS -->
<g id="node21" class="node">
<title>OPTIONS</title>
<path fill="#7f8c8d" stroke="white" d="M178.19,-555C178.19,-555 52.19,-555 52.19,-555 46.19,-555 40.19,-549 40.19,-543 40.19,-543 40.19,-531 40.19,-531 40.19,-525 46.19,-519 52.19,-519 52.19,-519 178.19,-519 178.19,-519 184.19,-519 190.19,-525 190.19,-531 190.19,-531 190.19,-543 190.19,-543 190.19,-549 184.19,-555 178.19,-555"/>
<text text-anchor="middle" x="115.19" y="-534.2" font-family="sans" font-size="11.00" fill="white">Show recovery/AOA/exit</text>
</g>
<!-- RECHECK&#45;&gt;OPTIONS -->
<g id="edge21" class="edge">
<title>RECHECK&#45;&gt;OPTIONS</title>
<path fill="none" stroke="#888899" d="M131.74,-597.09C129.13,-587.78 125.76,-575.76 122.75,-564.99"/>
<polygon fill="#888899" stroke="#888899" points="126.07,-563.87 120,-555.19 119.33,-565.76 126.07,-563.87"/>
<text text-anchor="middle" x="134.19" y="-573" font-family="sans" font-size="10.00" fill="white">No</text>
</g>
<!-- REBOOT&#45;&gt;RECHECK -->
<g id="edge22" class="edge">
<title>REBOOT&#45;&gt;RECHECK</title>
<path fill="none" stroke="#888899" d="M145.78,-662.92C144.45,-656.27 142.89,-648.51 141.43,-641.18"/>
<polygon fill="#888899" stroke="#888899" points="144.84,-640.41 139.45,-631.29 137.98,-641.78 144.84,-640.41"/>
</g>
<!-- SMARTMODE -->
<g id="node24" class="node">
<title>SMARTMODE</title>
<path fill="#f1c40f" stroke="white" d="M363.51,-266.25C363.51,-266.25 310.3,-253.75 310.3,-253.75 304.45,-252.37 304.45,-249.63 310.3,-248.25 310.3,-248.25 363.51,-235.75 363.51,-235.75 369.35,-234.37 381.03,-234.37 386.87,-235.75 386.87,-235.75 440.08,-248.25 440.08,-248.25 445.92,-249.63 445.92,-252.37 440.08,-253.75 440.08,-253.75 386.87,-266.25 386.87,-266.25 381.03,-267.63 369.35,-267.63 363.51,-266.25"/>
<text text-anchor="middle" x="375.19" y="-248.2" font-family="sans" font-size="11.00">Smart mode?</text>
</g>
<!-- MENU&#45;&gt;SMARTMODE -->
<g id="edge25" class="edge">
<title>MENU&#45;&gt;SMARTMODE</title>
<path fill="none" stroke="#888899" d="M375.19,-303.94C375.19,-296.54 375.19,-287.67 375.19,-279.38"/>
<polygon fill="#888899" stroke="#888899" points="378.69,-279.34 375.19,-269.34 371.69,-279.34 378.69,-279.34"/>
</g>
<!-- SMARTBRUTE -->
<g id="node25" class="node">
<title>SMARTBRUTE</title>
<path fill="#8e44ad" stroke="white" d="M353.69,-192C353.69,-192 246.69,-192 246.69,-192 240.69,-192 234.69,-186 234.69,-180 234.69,-180 234.69,-168 234.69,-168 234.69,-162 240.69,-156 246.69,-156 246.69,-156 353.69,-156 353.69,-156 359.69,-156 365.69,-162 365.69,-168 365.69,-168 365.69,-180 365.69,-180 365.69,-186 359.69,-192 353.69,-192"/>
<text text-anchor="middle" x="300.19" y="-171.2" font-family="sans" font-size="11.00" fill="white">brute_smart 4&#45;phase</text>
</g>
<!-- SMARTMODE&#45;&gt;SMARTBRUTE -->
<g id="edge26" class="edge">
<title>SMARTMODE&#45;&gt;SMARTBRUTE</title>
<path fill="none" stroke="#888899" d="M361.08,-235.89C350.82,-225.63 336.67,-211.48 324.59,-199.4"/>
<polygon fill="#888899" stroke="#888899" points="326.94,-196.8 317.4,-192.2 321.99,-201.75 326.94,-196.8"/>
<text text-anchor="middle" x="350.19" y="-210" font-family="sans" font-size="10.00" fill="white">Yes</text>
</g>
<!-- SEQUENTIAL -->
<g id="node26" class="node">
<title>SEQUENTIAL</title>
<path fill="#2980b9" stroke="white" d="M504.19,-192C504.19,-192 400.19,-192 400.19,-192 394.19,-192 388.19,-186 388.19,-180 388.19,-180 388.19,-168 388.19,-168 388.19,-162 394.19,-156 400.19,-156 400.19,-156 504.19,-156 504.19,-156 510.19,-156 516.19,-162 516.19,-168 516.19,-168 516.19,-180 516.19,-180 516.19,-186 510.19,-192 504.19,-192"/>
<text text-anchor="middle" x="452.19" y="-171.2" font-family="sans" font-size="11.00" fill="white">brute_pin sequential</text>
</g>
<!-- SMARTMODE&#45;&gt;SEQUENTIAL -->
<g id="edge27" class="edge">
<title>SMARTMODE&#45;&gt;SEQUENTIAL</title>
<path fill="none" stroke="#888899" d="M389.31,-236.24C399.89,-225.95 414.62,-211.6 427.17,-199.37"/>
<polygon fill="#888899" stroke="#888899" points="429.92,-201.58 434.64,-192.09 425.04,-196.56 429.92,-201.58"/>
<text text-anchor="middle" x="425.19" y="-210" font-family="sans" font-size="10.00" fill="white">No</text>
</g>
<!-- FOUNDPIN -->
<g id="node27" class="node">
<title>FOUNDPIN</title>
<path fill="#f1c40f" stroke="white" d="M363.64,-121.75C363.64,-121.75 322.74,-110.25 322.74,-110.25 316.97,-108.62 316.97,-105.38 322.74,-103.75 322.74,-103.75 363.64,-92.25 363.64,-92.25 369.41,-90.62 380.97,-90.62 386.74,-92.25 386.74,-92.25 427.64,-103.75 427.64,-103.75 433.41,-105.38 433.41,-108.62 427.64,-110.25 427.64,-110.25 386.74,-121.75 386.74,-121.75 380.97,-123.38 369.41,-123.38 363.64,-121.75"/>
<text text-anchor="middle" x="375.19" y="-104.2" font-family="sans" font-size="11.00">PIN found?</text>
</g>
<!-- SMARTBRUTE&#45;&gt;FOUNDPIN -->
<g id="edge28" class="edge">
<title>SMARTBRUTE&#45;&gt;FOUNDPIN</title>
<path fill="none" stroke="#888899" d="M319.9,-155.92C330,-147.17 342.34,-136.47 352.79,-127.41"/>
<polygon fill="#888899" stroke="#888899" points="355.09,-130.05 360.36,-120.86 350.51,-124.76 355.09,-130.05"/>
</g>
<!-- SEQUENTIAL&#45;&gt;FOUNDPIN -->
<g id="edge29" class="edge">
<title>SEQUENTIAL&#45;&gt;FOUNDPIN</title>
<path fill="none" stroke="#888899" d="M431.96,-155.92C421.59,-147.17 408.92,-136.47 398.19,-127.41"/>
<polygon fill="#888899" stroke="#888899" points="400.32,-124.63 390.42,-120.86 395.81,-129.98 400.32,-124.63"/>
</g>
<!-- SUCCESS -->
<g id="node28" class="node">
<title>SUCCESS</title>
<path fill="#27ae60" stroke="white" d="M342.19,-48C342.19,-48 246.19,-48 246.19,-48 240.19,-48 234.19,-42 234.19,-36 234.19,-36 234.19,-16 234.19,-16 234.19,-10 240.19,-4 246.19,-4 246.19,-4 342.19,-4 342.19,-4 348.19,-4 354.19,-10 354.19,-16 354.19,-16 354.19,-36 354.19,-36 354.19,-42 348.19,-48 342.19,-48"/>
<path fill="none" stroke="white" d="M346.19,-52C346.19,-52 242.19,-52 242.19,-52 236.19,-52 230.19,-46 230.19,-40 230.19,-40 230.19,-12 230.19,-12 230.19,-6 236.19,0 242.19,0 242.19,0 346.19,0 346.19,0 352.19,0 358.19,-6 358.19,-12 358.19,-12 358.19,-40 358.19,-40 358.19,-46 352.19,-52 346.19,-52"/>
<text text-anchor="middle" x="294.19" y="-23.2" font-family="sans" font-size="11.00" fill="white">Show PIN + stats</text>
</g>
<!-- FOUNDPIN&#45;&gt;SUCCESS -->
<g id="edge30" class="edge">
<title>FOUNDPIN&#45;&gt;SUCCESS</title>
<path fill="none" stroke="#888899" d="M361.45,-92.6C351.04,-82.44 336.35,-68.12 323.36,-55.45"/>
<polygon fill="#888899" stroke="#888899" points="325.55,-52.7 315.95,-48.22 320.66,-57.71 325.55,-52.7"/>
<text text-anchor="middle" x="350.19" y="-66" font-family="sans" font-size="10.00" fill="white">Yes</text>
</g>
<!-- FAIL -->
<g id="node29" class="node">
<title>FAIL</title>
<path fill="#e74c3c" stroke="white" d="M524.19,-48C524.19,-48 388.19,-48 388.19,-48 382.19,-48 376.19,-42 376.19,-36 376.19,-36 376.19,-16 376.19,-16 376.19,-10 382.19,-4 388.19,-4 388.19,-4 524.19,-4 524.19,-4 530.19,-4 536.19,-10 536.19,-16 536.19,-16 536.19,-36 536.19,-36 536.19,-42 530.19,-48 524.19,-48"/>
<path fill="none" stroke="white" d="M528.19,-52C528.19,-52 384.19,-52 384.19,-52 378.19,-52 372.19,-46 372.19,-40 372.19,-40 372.19,-12 372.19,-12 372.19,-6 378.19,0 384.19,0 384.19,0 528.19,0 528.19,0 534.19,0 540.19,-6 540.19,-12 540.19,-12 540.19,-40 540.19,-40 540.19,-46 534.19,-52 528.19,-52"/>
<text text-anchor="middle" x="456.19" y="-23.2" font-family="sans" font-size="11.00" fill="white">Show failure + summary</text>
</g>
<!-- FOUNDPIN&#45;&gt;FAIL -->
<g id="edge31" class="edge">
<title>FOUNDPIN&#45;&gt;FAIL</title>
<path fill="none" stroke="#888899" d="M388.93,-92.6C399.35,-82.44 414.03,-68.12 427.03,-55.45"/>
<polygon fill="#888899" stroke="#888899" points="429.72,-57.71 434.44,-48.22 424.84,-52.7 429.72,-57.71"/>
<text text-anchor="middle" x="424.19" y="-66" font-family="sans" font-size="10.00" fill="white">No</text>
</g>
</g>
</svg>
