<?xml version="1.0" encoding="UTF-8" standalone="no"?>
<!DOCTYPE svg PUBLIC "-//W3C//DTD SVG 1.1//EN"
 "http://www.w3.org/Graphics/SVG/1.1/DTD/svg11.dtd">
<!-- Generated by graphviz version 2.42.4 (0)
 -->
<!-- Pages: 1 -->
<svg width="476pt" height="968pt"
 viewBox="0.00 0.00 475.50 968.00" xmlns="http://www.w3.org/2000/svg" xmlns:xlink="http://www.w3.org/1999/xlink">
<g id="graph0" class="graph" transform="scale(1 1) rotate(0) translate(4 964)">
<polygon fill="#1a1a2e" stroke="transparent" points="-4,4 -4,-964 471.5,-964 471.5,4 -4,4"/>
<!-- NOADB -->
<g id="node1" class="node">
<title>NOADB</title>
<path fill="#c0392b" stroke="white" d="M258,-960C258,-960 223,-960 223,-960 217,-960 211,-954 211,-948 211,-948 211,-936 211,-936 211,-930 217,-924 223,-924 223,-924 258,-924 258,-924 264,-924 270,-930 270,-936 270,-936 270,-948 270,-948 270,-954 264,-960 258,-960"/>
<text text-anchor="middle" x="240.5" y="-939.2" font-family="sans" font-size="11.00" fill="white">No ADB</text>
</g>
<!-- DEEPSCAN -->
<g id="node2" class="node">
<title>DEEPSCAN</title>
<path fill="#8e44ad" stroke="white" d="M288,-893C288,-893 193,-893 193,-893 187,-893 181,-887 181,-881 181,-881 181,-869 181,-869 181,-863 187,-857 193,-857 193,-857 288,-857 288,-857 294,-857 300,-863 300,-869 300,-869 300,-881 300,-881 300,-887 294,-893 288,-893"/>
<text text-anchor="middle" x="240.5" y="-872.2" font-family="sans" font-size="11.00" fill="white">deep_scan_no_adb</text>
</g>
<!-- NOADB&#45;&gt;DEEPSCAN -->
<g id="edge1" class="edge">
<title>NOADB&#45;&gt;DEEPSCAN</title>
<path fill="none" stroke="#888899" d="M240.5,-923.92C240.5,-917.7 240.5,-910.5 240.5,-903.6"/>
<polygon fill="#888899" stroke="#888899" points="244,-903.19 240.5,-893.19 237,-903.19 244,-903.19"/>
</g>
<!-- FBVARS -->
<g id="node3" class="node">
<title>FBVARS</title>
<path fill="#f1c40f" stroke="white" d="M228.72,-823.7C228.72,-823.7 160.28,-810.3 160.28,-810.3 154.39,-809.15 154.39,-806.85 160.28,-805.7 160.28,-805.7 228.72,-792.3 228.72,-792.3 234.61,-791.15 246.39,-791.15 252.28,-792.3 252.28,-792.3 320.72,-805.7 320.72,-805.7 326.61,-806.85 326.61,-809.15 320.72,-810.3 320.72,-810.3 252.28,-823.7 252.28,-823.7 246.39,-824.85 234.61,-824.85 228.72,-823.7"/>
<text text-anchor="middle" x="240.5" y="-805.2" font-family="sans" font-size="11.00">fastboot getvar?</text>
</g>
<!-- DEEPSCAN&#45;&gt;FBVARS -->
<g id="edge2" class="edge">
<title>DEEPSCAN&#45;&gt;FBVARS</title>
<path fill="none" stroke="#888899" d="M240.5,-856.92C240.5,-850.7 240.5,-843.5 240.5,-836.6"/>
<polygon fill="#888899" stroke="#888899" points="244,-836.19 240.5,-826.19 237,-836.19 244,-836.19"/>
</g>
<!-- FBSCAN -->
<g id="node4" class="node">
<title>FBSCAN</title>
<path fill="#16a085" stroke="white" d="M229.5,-749C229.5,-749 97.5,-749 97.5,-749 91.5,-749 85.5,-743 85.5,-737 85.5,-737 85.5,-725 85.5,-725 85.5,-719 91.5,-713 97.5,-713 97.5,-713 229.5,-713 229.5,-713 235.5,-713 241.5,-719 241.5,-725 241.5,-725 241.5,-737 241.5,-737 241.5,-743 235.5,-749 229.5,-749"/>
<text text-anchor="middle" x="163.5" y="-728.2" font-family="sans" font-size="11.00" fill="white">deep_scan_from_fastboot</text>
</g>
<!-- FBVARS&#45;&gt;FBSCAN -->
<g id="edge3" class="edge">
<title>FBVARS&#45;&gt;FBSCAN</title>
<path fill="none" stroke="#888899" d="M225.65,-792.54C215.09,-782.25 200.64,-768.17 188.33,-756.18"/>
<polygon fill="#888899" stroke="#888899" points="190.61,-753.51 181,-749.04 185.72,-758.52 190.61,-753.51"/>
<text text-anchor="middle" x="227.5" y="-767" font-family="sans" font-size="10.00" fill="white">Success</text>
</g>
<!-- USBSCAN -->
<g id="node5" class="node">
<title>USBSCAN</title>
<path fill="#16a085" stroke="white" d="M361.5,-749C361.5,-749 275.5,-749 275.5,-749 269.5,-749 263.5,-743 263.5,-737 263.5,-737 263.5,-725 263.5,-725 263.5,-719 269.5,-713 275.5,-713 275.5,-713 361.5,-713 361.5,-713 367.5,-713 373.5,-719 373.5,-725 373.5,-725 373.5,-737 373.5,-737 373.5,-743 367.5,-749 361.5,-749"/>
<text text-anchor="middle" x="318.5" y="-728.2" font-family="sans" font-size="11.00" fill="white">usb_raw_scan_all</text>
</g>
<!-- FBVARS&#45;&gt;USBSCAN -->
<g id="edge4" class="edge">
<title>FBVARS&#45;&gt;USBSCAN</title>
<path fill="none" stroke="#888899" d="M255.54,-792.54C266.24,-782.25 280.88,-768.17 293.35,-756.18"/>
<polygon fill="#888899" stroke="#888899" points="295.99,-758.49 300.78,-749.04 291.14,-753.45 295.99,-758.49"/>
<text text-anchor="middle" x="292" y="-767" font-family="sans" font-size="10.00" fill="white">Fail</text>
</g>
<!-- FBFILL -->
<g id="node6" class="node">
<title>FBFILL</title>
<path fill="#2980b9" stroke="white" d="M215.5,-631C215.5,-631 111.5,-631 111.5,-631 105.5,-631 99.5,-625 99.5,-619 99.5,-619 99.5,-607 99.5,-607 99.5,-601 105.5,-595 111.5,-595 111.5,-595 215.5,-595 215.5,-595 221.5,-595 227.5,-601 227.5,-607 227.5,-607 227.5,-619 227.5,-619 227.5,-625 221.5,-631 215.5,-631"/>
<text text-anchor="middle" x="163.5" y="-610.2" font-family="sans" font-size="11.00" fill="white">Fill: model/serial/soc</text>
</g>
<!-- FBSCAN&#45;&gt;FBFILL -->
<g id="edge5" class="edge">
<title>FBSCAN&#45;&gt;FBFILL</title>
<path fill="none" stroke="#888899" d="M163.5,-712.88C163.5,-694.04 163.5,-663.47 163.5,-641.3"/>
<polygon fill="#888899" stroke="#888899" points="167,-641.19 163.5,-631.19 160,-641.19 167,-641.19"/>
</g>
<!-- FOUND -->
<g id="node7" class="node">
<title>FOUND</title>
<path fill="#f1c40f" stroke="white" d="M306.67,-680C306.67,-680 223.83,-666 223.83,-666 217.92,-665 217.92,-663 223.83,-662 223.83,-662 306.67,-648 306.67,-648 312.58,-647 324.42,-647 330.33,-648 330.33,-648 413.17,-662 413.17,-662 419.08,-663 419.08,-665 413.17,-666 413.17,-666 330.33,-680 330.33,-680 324.42,-681 312.58,-681 306.67,-680"/>
<text text-anchor="middle" x="318.5" y="-661.2" font-family="sans" font-size="11.00">Android USB found?</text>
</g>
<!-- USBSCAN&#45;&gt;FOUND -->
<g id="edge6" class="edge">
<title>USBSCAN&#45;&gt;FOUND</title>
<path fill="none" stroke="#888899" d="M318.5,-712.92C318.5,-706.7 318.5,-699.5 318.5,-692.6"/>
<polygon fill="#888899" stroke="#888899" points="322,-692.19 318.5,-682.19 315,-692.19 322,-692.19"/>
</g>
<!-- PRINT -->
<g id="node8" class="node">
<title>PRINT</title>
<path fill="#2980b9" stroke="white" d="M220,-438C220,-438 135,-438 135,-438 129,-438 123,-432 123,-426 123,-426 123,-414 123,-414 123,-408 129,-402 135,-402 135,-402 220,-402 220,-402 226,-402 232,-408 232,-414 232,-414 232,-426 232,-426 232,-432 226,-438 220,-438"/>
<text text-anchor="middle" x="177.5" y="-417.2" font-family="sans" font-size="11.00" fill="white">print_device_info</text>
</g>
<!-- FBFILL&#45;&gt;PRINT -->
<g id="edge7" class="edge">
<title>FBFILL&#45;&gt;PRINT</title>
<path fill="none" stroke="#888899" d="M164.77,-594.71C167.21,-561.4 172.58,-488.1 175.51,-448.19"/>
<polygon fill="#888899" stroke="#888899" points="179.01,-448.34 176.25,-438.11 172.03,-447.83 179.01,-448.34"/>
</g>
<!-- USBSCAN2 -->
<g id="node9" class="node">
<title>USBSCAN2</title>
<path fill="#16a085" stroke="white" d="M329.5,-576C329.5,-576 223.5,-576 223.5,-576 217.5,-576 211.5,-570 211.5,-564 211.5,-564 211.5,-552 211.5,-552 211.5,-546 217.5,-540 223.5,-540 223.5,-540 329.5,-540 329.5,-540 335.5,-540 341.5,-546 341.5,-552 341.5,-552 341.5,-564 341.5,-564 341.5,-570 335.5,-576 329.5,-576"/>
<text text-anchor="middle" x="276.5" y="-555.2" font-family="sans" font-size="11.00" fill="white">deep_scan_from_usb</text>
</g>
<!-- FOUND&#45;&gt;USBSCAN2 -->
<g id="edge8" class="edge">
<title>FOUND&#45;&gt;USBSCAN2</title>
<path fill="none" stroke="#888899" d="M311.94,-646.75C305.34,-630.4 295.05,-604.92 287.25,-585.62"/>
<polygon fill="#888899" stroke="#888899" points="290.43,-584.14 283.44,-576.17 283.93,-586.75 290.43,-584.14"/>
<text text-anchor="middle" x="312.5" y="-610.5" font-family="sans" font-size="10.00" fill="white">Yes</text>
</g>
<!-- EMPTY -->
<g id="node10" class="node">
<title>EMPTY</title>
<path fill="#7f8c8d" stroke="white" d="M451.5,-580C451.5,-580 375.5,-580 375.5,-580 369.5,-580 363.5,-574 363.5,-568 363.5,-568 363.5,-548 363.5,-548 363.5,-542 369.5,-536 375.5,-536 375.5,-536 451.5,-536 451.5,-536 457.5,-536 463.5,-542 463.5,-548 463.5,-548 463.5,-568 463.5,-568 463.5,-574 457.5,-580 451.5,-580"/>
<path fill="none" stroke="white" d="M455.5,-584C455.5,-584 371.5,-584 371.5,-584 365.5,-584 359.5,-578 359.5,-572 359.5,-572 359.5,-544 359.5,-544 359.5,-538 365.5,-532 371.5,-532 371.5,-532 455.5,-532 455.5,-532 461.5,-532 467.5,-538 467.5,-544 467.5,-544 467.5,-572 467.5,-572 467.5,-578 461.5,-584 455.5,-584"/>
<text text-anchor="middle" x="413.5" y="-555.2" font-family="sans" font-size="11.00" fill="white">Return empty</text>
</g>
<!-- FOUND&#45;&gt;EMPTY -->
<g id="edge9" class="edge">
<title>FOUND&#45;&gt;EMPTY</title>
<path fill="none" stroke="#888899" d="M332.11,-648.1C346.42,-632.43 369.3,-607.39 387.16,-587.83"/>
<polygon fill="#888899" stroke="#888899" points="389.82,-590.11 393.98,-580.37 384.65,-585.39 389.82,-590.11"/>
<text text-anchor="middle" x="386.5" y="-610.5" font-family="sans" font-size="10.00" fill="white">No</text>
</g>
<!-- FBMODE -->
<g id="node11" class="node">
<title>FBMODE</title>
<path fill="#f1c40f" stroke="white" d="M165.75,-368.59C165.75,-368.59 101.57,-355.41 101.57,-355.41 95.69,-354.21 95.69,-351.79 101.57,-350.59 101.57,-350.59 165.75,-337.41 165.75,-337.41 171.62,-336.21 183.38,-336.21 189.25,-337.41 189.25,-337.41 253.43,-350.59 253.43,-350.59 259.31,-351.79 259.31,-354.21 253.43,-355.41 253.43,-355.41 189.25,-368.59 189.25,-368.59 183.38,-369.79 171.62,-369.79 165.75,-368.59"/>
<text text-anchor="middle" x="177.5" y="-350.2" font-family="sans" font-size="11.00">fastboot mode?</text>
</g>
<!-- PRINT&#45;&gt;FBMODE -->
<g id="edge10" class="edge">
<title>PRINT&#45;&gt;FBMODE</title>
<path fill="none" stroke="#888899" d="M177.5,-401.92C177.5,-395.7 177.5,-388.5 177.5,-381.6"/>
<polygon fill="#888899" stroke="#888899" points="181,-381.19 177.5,-371.19 174,-381.19 181,-381.19"/>
</g>
<!-- USBFILL -->
<g id="node14" class="node">
<title>USBFILL</title>
<path fill="#2980b9" stroke="white" d="M343.5,-505C343.5,-505 209.5,-505 209.5,-505 203.5,-505 197.5,-499 197.5,-493 197.5,-493 197.5,-481 197.5,-481 197.5,-475 203.5,-469 209.5,-469 209.5,-469 343.5,-469 343.5,-469 349.5,-469 355.5,-475 355.5,-481 355.5,-481 355.5,-493 355.5,-493 355.5,-499 349.5,-505 343.5,-505"/>
<text text-anchor="middle" x="276.5" y="-484.2" font-family="sans" font-size="11.00" fill="white">Fill: vendor/model/chipset</text>
</g>
<!-- USBSCAN2&#45;&gt;USBFILL -->
<g id="edge13" class="edge">
<title>USBSCAN2&#45;&gt;USBFILL</title>
<path fill="none" stroke="#888899" d="M276.5,-539.94C276.5,-532.54 276.5,-523.67 276.5,-515.38"/>
<polygon fill="#888899" stroke="#888899" points="280,-515.34 276.5,-505.34 273,-515.34 280,-515.34"/>
</g>
<!-- OEM -->
<g id="node12" class="node">
<title>OEM</title>
<path fill="#d35400" stroke="white" d="M195.5,-294C195.5,-294 31.5,-294 31.5,-294 25.5,-294 19.5,-288 19.5,-282 19.5,-282 19.5,-270 19.5,-270 19.5,-264 25.5,-258 31.5,-258 31.5,-258 195.5,-258 195.5,-258 201.5,-258 207.5,-264 207.5,-270 207.5,-270 207.5,-282 207.5,-282 207.5,-288 201.5,-294 195.5,-294"/>
<text text-anchor="middle" x="113.5" y="-273.2" font-family="sans" font-size="11.00" fill="white">Attempt OEM unlock 11 brands</text>
</g>
<!-- FBMODE&#45;&gt;OEM -->
<g id="edge11" class="edge">
<title>FBMODE&#45;&gt;OEM</title>
<path fill="none" stroke="#888899" d="M164.86,-337.18C156.27,-327.12 144.71,-313.58 134.73,-301.88"/>
<polygon fill="#888899" stroke="#888899" points="137.29,-299.48 128.13,-294.15 131.96,-304.03 137.29,-299.48"/>
<text text-anchor="middle" x="157.5" y="-312" font-family="sans" font-size="10.00" fill="white">Yes</text>
</g>
<!-- SWITCH -->
<g id="node13" class="node">
<title>SWITCH</title>
<path fill="#d35400" stroke="white" d="M317.5,-243C317.5,-243 155.5,-243 155.5,-243 149.5,-243 143.5,-237 143.5,-231 143.5,-231 143.5,-219 143.5,-219 143.5,-213 149.5,-207 155.5,-207 155.5,-207 317.5,-207 317.5,-207 323.5,-207 329.5,-213 329.5,-219 329.5,-219 329.5,-231 329.5,-231 329.5,-237 323.5,-243 317.5,-243"/>
<text text-anchor="middle" x="236.5" y="-222.2" font-family="sans" font-size="11.00" fill="white">USB mode switch 7 vendor IDs</text>
</g>
<!-- FBMODE&#45;&gt;SWITCH -->
<g id="edge12" class="edge">
<title>FBMODE&#45;&gt;SWITCH</title>
<path fill="none" stroke="#888899" d="M190.24,-337.18C199.28,-325.97 211.09,-309.86 218.5,-294 224.52,-281.12 228.78,-265.89 231.65,-253.12"/>
<polygon fill="#888899" stroke="#888899" points="235.13,-253.57 233.73,-243.07 228.28,-252.15 235.13,-253.57"/>
<text text-anchor="middle" x="217.5" y="-312" font-family="sans" font-size="10.00" fill="white">No</text>
</g>
<!-- REBOOT -->
<g id="node15" class="node">
<title>REBOOT</title>
<path fill="#27ae60" stroke="white" d="M174.5,-192C174.5,-192 94.5,-192 94.5,-192 88.5,-192 82.5,-186 82.5,-180 82.5,-180 82.5,-168 82.5,-168 82.5,-162 88.5,-156 94.5,-156 94.5,-156 174.5,-156 174.5,-156 180.5,-156 186.5,-162 186.5,-168 186.5,-168 186.5,-180 186.5,-180 186.5,-186 180.5,-192 174.5,-192"/>
<text text-anchor="middle" x="134.5" y="-171.2" font-family="sans" font-size="11.00" fill="white">fastboot_reboot</text>
</g>
<!-- OEM&#45;&gt;REBOOT -->
<g id="edge15" class="edge">
<title>OEM&#45;&gt;REBOOT</title>
<path fill="none" stroke="#888899" d="M117.16,-257.58C120.35,-242.38 125.04,-220.07 128.73,-202.46"/>
<polygon fill="#888899" stroke="#888899" points="132.25,-202.73 130.88,-192.22 125.4,-201.29 132.25,-202.73"/>
</g>
<!-- RECHECK -->
<g id="node16" class="node">
<title>RECHECK</title>
<path fill="#f1c40f" stroke="white" d="M171.98,-121.63C171.98,-121.63 133.55,-110.37 133.55,-110.37 127.8,-108.69 127.8,-105.31 133.55,-103.63 133.55,-103.63 171.98,-92.37 171.98,-92.37 177.74,-90.69 189.26,-90.69 195.02,-92.37 195.02,-92.37 233.45,-103.63 233.45,-103.63 239.2,-105.31 239.2,-108.69 233.45,-110.37 233.45,-110.37 195.02,-121.63 195.02,-121.63 189.26,-123.31 177.74,-123.31 171.98,-121.63"/>
<text text-anchor="middle" x="183.5" y="-104.2" font-family="sans" font-size="11.00">ADB now?</text>
</g>
<!-- SWITCH&#45;&gt;RECHECK -->
<g id="edge16" class="edge">
<title>SWITCH&#45;&gt;RECHECK</title>
<path fill="none" stroke="#888899" d="M228.68,-206.88C219.7,-187.23 204.9,-154.83 194.7,-132.51"/>
<polygon fill="#888899" stroke="#888899" points="197.85,-130.97 190.51,-123.33 191.48,-133.88 197.85,-130.97"/>
</g>
<!-- USBFILL&#45;&gt;PRINT -->
<g id="edge14" class="edge">
<title>USBFILL&#45;&gt;PRINT</title>
<path fill="none" stroke="#888899" d="M250.49,-468.92C238.76,-461.22 224.74,-452.01 212.13,-443.74"/>
<polygon fill="#888899" stroke="#888899" points="213.96,-440.75 203.68,-438.19 210.12,-446.61 213.96,-440.75"/>
</g>
<!-- REBOOT&#45;&gt;RECHECK -->
<g id="edge17" class="edge">
<title>REBOOT&#45;&gt;RECHECK</title>
<path fill="none" stroke="#888899" d="M147.37,-155.92C153.33,-148.02 160.48,-138.54 166.84,-130.11"/>
<polygon fill="#888899" stroke="#888899" points="169.64,-132.2 172.86,-122.11 164.05,-128 169.64,-132.2"/>
</g>
<!-- SAFE -->
<g id="node17" class="node">
<title>SAFE</title>
<path fill="#27ae60" stroke="white" d="M155,-48C155,-48 16,-48 16,-48 10,-48 4,-42 4,-36 4,-36 4,-16 4,-16 4,-10 10,-4 16,-4 16,-4 155,-4 155,-4 161,-4 167,-10 167,-16 167,-16 167,-36 167,-36 167,-42 161,-48 155,-48"/>
<path fill="none" stroke="white" d="M159,-52C159,-52 12,-52 12,-52 6,-52 0,-46 0,-40 0,-40 0,-12 0,-12 0,-6 6,0 12,0 12,0 159,0 159,0 165,0 171,-6 171,-12 171,-12 171,-40 171,-40 171,-46 165,-52 159,-52"/>
<text text-anchor="middle" x="85.5" y="-23.2" font-family="sans" font-size="11.00" fill="white">safe_detect_all + full info</text>
</g>
<!-- RECHECK&#45;&gt;SAFE -->
<g id="edge18" class="edge">
<title>RECHECK&#45;&gt;SAFE</title>
<path fill="none" stroke="#888899" d="M167.75,-93.31C154.83,-82.89 136.06,-67.75 119.71,-54.58"/>
<polygon fill="#888899" stroke="#888899" points="121.89,-51.84 111.91,-48.29 117.5,-57.29 121.89,-51.84"/>
<text text-anchor="middle" x="151.5" y="-66" font-family="sans" font-size="10.00" fill="white">Yes</text>
</g>
<!-- OPTIONS -->
<g id="node18" class="node">
<title>OPTIONS</title>
<path fill="#d35400" stroke="white" d="M363.5,-48C363.5,-48 201.5,-48 201.5,-48 195.5,-48 189.5,-42 189.5,-36 189.5,-36 189.5,-16 189.5,-16 189.5,-10 195.5,-4 201.5,-4 201.5,-4 363.5,-4 363.5,-4 369.5,-4 375.5,-10 375.5,-16 375.5,-16 375.5,-36 375.5,-36 375.5,-42 369.5,-48 363.5,-48"/>
<path fill="none" stroke="white" d="M367.5,-52C367.5,-52 197.5,-52 197.5,-52 191.5,-52 185.5,-46 185.5,-40 185.5,-40 185.5,-12 185.5,-12 185.5,-6 191.5,0 197.5,0 197.5,0 367.5,0 367.5,0 373.5,0 379.5,-6 379.5,-12 379.5,-12 379.5,-40 379.5,-40 379.5,-46 373.5,-52 367.5,-52"/>
<text text-anchor="middle" x="282.5" y="-23.2" font-family="sans" font-size="11.00" fill="white">Show: recovery/AOA/fastboot</text>
</g>
<!-- RECHECK&#45;&gt;OPTIONS -->
<g id="edge19" class="edge">
<title>RECHECK&#45;&gt;OPTIONS</title>
<path fill="none" stroke="#888899" d="M199.41,-93.31C212.46,-82.89 231.43,-67.75 247.94,-54.58"/>
<polygon fill="#888899" stroke="#888899" points="250.18,-57.26 255.82,-48.29 245.82,-51.79 250.18,-57.26"/>
<text text-anchor="middle" x="243.5" y="-66" font-family="sans" font-size="10.00" fill="white">No</text>
</g>
</g>
</svg>
